G04 Layer_Color=128*
%FSLAX44Y44*%
%MOMM*%
G71*
G01*
G75*
%ADD61R,1.6700X1.6700*%
%ADD62R,0.8500X1.4000*%
%ADD64R,1.6700X1.6700*%
%ADD68R,1.2000X5.4800*%
%ADD101P,2.3617X4X90.0*%
D61*
X7317750Y6655000D02*
D03*
Y6635000D02*
D03*
D62*
X7078000Y5893000D02*
D03*
X7069000D02*
D03*
X7060000D02*
D03*
X7051000D02*
D03*
X7078000Y5910000D02*
D03*
X7069000D02*
D03*
X7060000D02*
D03*
X7051000D02*
D03*
X6705750D02*
D03*
X6714750D02*
D03*
X6723750D02*
D03*
X6732750D02*
D03*
X6705750Y5893000D02*
D03*
X6714750D02*
D03*
X6723750D02*
D03*
X6732750D02*
D03*
X6963250D02*
D03*
X6954250D02*
D03*
X6945250D02*
D03*
X6936250D02*
D03*
X6963250Y5910000D02*
D03*
X6954250D02*
D03*
X6945250D02*
D03*
X6936250D02*
D03*
X6821000D02*
D03*
X6830000D02*
D03*
X6839000D02*
D03*
X6848000D02*
D03*
X6821000Y5893000D02*
D03*
X6830000D02*
D03*
X6839000D02*
D03*
X6848000D02*
D03*
D64*
X8528000Y6346000D02*
D03*
X8508000D02*
D03*
X6290000Y5958000D02*
D03*
X6310000D02*
D03*
X6290000Y5830000D02*
D03*
X6310000D02*
D03*
X6290000Y5721500D02*
D03*
X6310000D02*
D03*
X7279000Y6202000D02*
D03*
X7259000D02*
D03*
X7606000D02*
D03*
X7586000D02*
D03*
X7039000Y6963000D02*
D03*
X7059000D02*
D03*
X7052250Y6880000D02*
D03*
X7072250D02*
D03*
X6280000Y6128000D02*
D03*
X6260000D02*
D03*
D68*
X7163000Y7224000D02*
D03*
X7175700D02*
D03*
X7188400D02*
D03*
X7201100D02*
D03*
X7213800D02*
D03*
X7226500D02*
D03*
X7239200D02*
D03*
X7251900D02*
D03*
X7264600D02*
D03*
X7277300D02*
D03*
X7290000D02*
D03*
X7328200Y7224600D02*
D03*
X7340900D02*
D03*
X7353600D02*
D03*
X7366300D02*
D03*
X7379000D02*
D03*
X7391700D02*
D03*
X7404400D02*
D03*
X7417100D02*
D03*
X7429800D02*
D03*
X7442500D02*
D03*
X7455200D02*
D03*
X7467900D02*
D03*
X7480600D02*
D03*
X7493300D02*
D03*
X7506000D02*
D03*
X7518700D02*
D03*
X7531400D02*
D03*
X7544100D02*
D03*
X7556800D02*
D03*
X7569500D02*
D03*
X7582200D02*
D03*
X7594900D02*
D03*
X7607600D02*
D03*
X7620300D02*
D03*
X7633000D02*
D03*
X7645700D02*
D03*
X7658400D02*
D03*
X7671100D02*
D03*
X7683800D02*
D03*
X7696500D02*
D03*
X7709200D02*
D03*
X7721900D02*
D03*
X7734600D02*
D03*
X7747300D02*
D03*
X7760000D02*
D03*
X7772700D02*
D03*
X7785400D02*
D03*
X7810800D02*
D03*
X7823500D02*
D03*
X7836200D02*
D03*
X7848900D02*
D03*
X7861600D02*
D03*
X7874300D02*
D03*
X7887000D02*
D03*
X7899700D02*
D03*
X7912400D02*
D03*
X7925100D02*
D03*
X7937800D02*
D03*
X7798000D02*
D03*
D101*
X8259000Y6180000D02*
D03*
X8244858Y6165858D02*
D03*
X7944000Y6178000D02*
D03*
X7929858Y6163858D02*
D03*
M02*
