G04 Layer_Physical_Order=4*
G04 Layer_Color=16711680*
%FSLAX44Y44*%
%MOMM*%
G71*
G01*
G75*
%ADD10R,1.2700X1.2700*%
%ADD11R,0.4500X1.0000*%
%ADD13R,1.2700X1.2700*%
%ADD17R,0.8000X5.0800*%
%ADD25C,0.2000*%
%ADD26C,0.2540*%
%ADD27C,0.4000*%
%ADD29C,0.7000*%
%ADD30C,0.8000*%
%ADD31C,1.0000*%
%ADD36C,1.2700*%
%ADD37R,1.5000X1.5000*%
%ADD38C,1.5000*%
%ADD39C,3.3000*%
%ADD40C,1.5240*%
%ADD41C,1.3000*%
%ADD42R,2.5000X2.5000*%
%ADD43R,1.5000X2.1000*%
%ADD44C,2.5000*%
%ADD45O,1.5000X1.0000*%
%ADD46O,1.0000X1.5000*%
%ADD47R,1.8000X2.7500*%
%ADD48C,5.0000*%
%ADD49C,0.7000*%
%ADD54C,0.5000*%
%ADD55P,1.7961X4X90.0*%
G36*
X6260000Y7170000D02*
Y7160000D01*
X6260000Y7149000D01*
X6459000Y7149000D01*
X6473000Y7163000D01*
X6504494D01*
X6507000Y7161962D01*
X6509506Y7163000D01*
X6520000D01*
Y7130000D01*
X6493000Y7103000D01*
X6195000D01*
X6195000Y7144898D01*
X6195000Y7144898D01*
X6195000Y7160000D01*
Y7170000D01*
X6220000Y7185000D01*
X6240000D01*
X6260000Y7170000D01*
D02*
G37*
G36*
X6325000Y6995000D02*
X6330000Y6990000D01*
X6330000Y6950000D01*
X6330000Y6272000D01*
X6405000Y6197000D01*
X6405000Y6145000D01*
Y6140000D01*
X6415000Y6130000D01*
Y6120000D01*
X6405000Y6110000D01*
X6370000D01*
X6360000Y6120000D01*
Y6155000D01*
Y6190000D01*
X6345000Y6205000D01*
X6290000Y6260000D01*
Y6295000D01*
Y6955000D01*
Y6990000D01*
X6295000Y6995000D01*
X6325000Y6995000D01*
D02*
G37*
G36*
X6283500Y7036000D02*
X6284499Y7034065D01*
X6284984Y7032893D01*
X6285330Y7032293D01*
X6285637Y7031672D01*
X6286063Y7031035D01*
X6287500Y7028250D01*
Y7016500D01*
X6210000Y6939000D01*
Y6070000D01*
Y6053000D01*
X6234000Y6029000D01*
X6265000Y6060000D01*
Y6067000D01*
X6273000Y6075000D01*
X6282748D01*
X6282775Y6074595D01*
X6283351Y6071697D01*
X6283574Y6071042D01*
X6283754Y6070373D01*
X6284884Y6067643D01*
X6285230Y6067043D01*
X6285536Y6066422D01*
X6287178Y6063965D01*
X6287635Y6063445D01*
X6288056Y6062896D01*
X6290000Y6060952D01*
Y6055000D01*
X6285000Y6050000D01*
X6270000D01*
X6240000Y6020000D01*
Y5993000D01*
X6235000Y5988000D01*
X6212000D01*
X6208000Y5992000D01*
Y6009000D01*
Y6033000D01*
X6192000Y6049000D01*
Y6927000D01*
Y6948000D01*
X6212000Y6968000D01*
X6268000Y7024000D01*
X6268000Y7037683D01*
X6269026Y7038590D01*
X6283500Y7036000D01*
D02*
G37*
G36*
X7922000Y6089000D02*
X7931000Y6080000D01*
X7931000Y5954000D01*
X8453000Y5432000D01*
Y5410000D01*
X8521000Y5342000D01*
X8527000Y5336000D01*
Y5327000D01*
X8527000Y5262000D01*
X8516000Y5251000D01*
X8497000Y5251000D01*
X8494000D01*
X8487000Y5258000D01*
X8483000Y5262000D01*
Y5332000D01*
Y5342000D01*
X8349000Y5476000D01*
X7891000Y5934000D01*
X7891000Y6080000D01*
X7900000Y6089000D01*
X7922000Y6089000D01*
D02*
G37*
%LPC*%
G36*
X6226270Y7169938D02*
Y7161270D01*
X6232605D01*
Y7162500D01*
X6232346Y7164468D01*
X6231586Y7166302D01*
X6230378Y7167878D01*
X6228802Y7169086D01*
X6226968Y7169846D01*
X6226270Y7169938D01*
D02*
G37*
G36*
X6223730D02*
X6223032Y7169846D01*
X6221198Y7169086D01*
X6219622Y7167878D01*
X6218414Y7166302D01*
X6217654Y7164468D01*
X6217395Y7162500D01*
Y7161270D01*
X6223730D01*
Y7169938D01*
D02*
G37*
G36*
X6232605Y7158730D02*
X6226270D01*
Y7150062D01*
X6226968Y7150154D01*
X6228802Y7150914D01*
X6230378Y7152122D01*
X6231586Y7153698D01*
X6232346Y7155532D01*
X6232605Y7157500D01*
Y7158730D01*
D02*
G37*
G36*
X6223730D02*
X6217395D01*
Y7157500D01*
X6217654Y7155532D01*
X6218414Y7153698D01*
X6219622Y7152122D01*
X6221198Y7150914D01*
X6223032Y7150154D01*
X6223730Y7150062D01*
Y7158730D01*
D02*
G37*
G36*
X6508270Y7154697D02*
Y7146870D01*
X6516096D01*
X6513804Y7152404D01*
X6508270Y7154697D01*
D02*
G37*
G36*
X6505730Y7154697D02*
X6500196Y7152404D01*
X6497903Y7146870D01*
X6505730D01*
Y7154697D01*
D02*
G37*
G36*
X6516097Y7144330D02*
X6508270D01*
Y7136504D01*
X6513804Y7138796D01*
X6516097Y7144330D01*
D02*
G37*
G36*
X6505730D02*
X6497903D01*
X6500196Y7138796D01*
X6505730Y7136503D01*
Y7144330D01*
D02*
G37*
G36*
X6250500Y7139576D02*
X6245500D01*
X6240142Y7137358D01*
X6237924Y7132000D01*
X6240142Y7126642D01*
X6245500Y7124423D01*
X6250500D01*
X6255858Y7126642D01*
X6258077Y7132000D01*
X6255858Y7137358D01*
X6250500Y7139576D01*
D02*
G37*
G36*
X6376000Y6207838D02*
X6374244Y6207489D01*
X6372756Y6206494D01*
X6371761Y6205006D01*
X6371412Y6203250D01*
X6371761Y6201494D01*
X6372756Y6200005D01*
X6374244Y6199011D01*
X6376000Y6198661D01*
X6377756Y6199011D01*
X6379244Y6200005D01*
X6380239Y6201494D01*
X6380588Y6203250D01*
X6380239Y6205006D01*
X6379244Y6206494D01*
X6377756Y6207489D01*
X6376000Y6207838D01*
D02*
G37*
%LPD*%
D10*
X7317750Y6655000D02*
D03*
Y6635000D02*
D03*
D11*
X7078000Y5893000D02*
D03*
X7069000D02*
D03*
X7060000D02*
D03*
X7051000D02*
D03*
X7078000Y5910000D02*
D03*
X7069000D02*
D03*
X7060000D02*
D03*
X7051000D02*
D03*
X6705750D02*
D03*
X6714750D02*
D03*
X6723750D02*
D03*
X6732750D02*
D03*
X6705750Y5893000D02*
D03*
X6714750D02*
D03*
X6723750D02*
D03*
X6732750D02*
D03*
X6963250D02*
D03*
X6954250D02*
D03*
X6945250D02*
D03*
X6936250D02*
D03*
X6963250Y5910000D02*
D03*
X6954250D02*
D03*
X6945250D02*
D03*
X6936250D02*
D03*
X6821000D02*
D03*
X6830000D02*
D03*
X6839000D02*
D03*
X6848000D02*
D03*
X6821000Y5893000D02*
D03*
X6830000D02*
D03*
X6839000D02*
D03*
X6848000D02*
D03*
D13*
X8528000Y6346000D02*
D03*
X8508000D02*
D03*
X6290000Y5958000D02*
D03*
X6310000D02*
D03*
X6290000Y5830000D02*
D03*
X6310000D02*
D03*
X6290000Y5721500D02*
D03*
X6310000D02*
D03*
X7279000Y6202000D02*
D03*
X7259000D02*
D03*
X7606000D02*
D03*
X7586000D02*
D03*
X7039000Y6963000D02*
D03*
X7059000D02*
D03*
X7052250Y6880000D02*
D03*
X7072250D02*
D03*
X6280000Y6128000D02*
D03*
X6260000D02*
D03*
D17*
X7163000Y7224000D02*
D03*
X7175700D02*
D03*
X7188400D02*
D03*
X7201100D02*
D03*
X7213800D02*
D03*
X7226500D02*
D03*
X7239200D02*
D03*
X7251900D02*
D03*
X7264600D02*
D03*
X7277300D02*
D03*
X7290000D02*
D03*
X7328200Y7224600D02*
D03*
X7340900D02*
D03*
X7353600D02*
D03*
X7366300D02*
D03*
X7379000D02*
D03*
X7391700D02*
D03*
X7404400D02*
D03*
X7417100D02*
D03*
X7429800D02*
D03*
X7442500D02*
D03*
X7455200D02*
D03*
X7467900D02*
D03*
X7480600D02*
D03*
X7493300D02*
D03*
X7506000D02*
D03*
X7518700D02*
D03*
X7531400D02*
D03*
X7544100D02*
D03*
X7556800D02*
D03*
X7569500D02*
D03*
X7582200D02*
D03*
X7594900D02*
D03*
X7607600D02*
D03*
X7620300D02*
D03*
X7633000D02*
D03*
X7645700D02*
D03*
X7658400D02*
D03*
X7671100D02*
D03*
X7683800D02*
D03*
X7696500D02*
D03*
X7709200D02*
D03*
X7721900D02*
D03*
X7734600D02*
D03*
X7747300D02*
D03*
X7760000D02*
D03*
X7772700D02*
D03*
X7785400D02*
D03*
X7810800D02*
D03*
X7823500D02*
D03*
X7836200D02*
D03*
X7848900D02*
D03*
X7861600D02*
D03*
X7874300D02*
D03*
X7887000D02*
D03*
X7899700D02*
D03*
X7912400D02*
D03*
X7925100D02*
D03*
X7937800D02*
D03*
X7798000D02*
D03*
D25*
X7026250Y5787750D02*
Y5860250D01*
X7051000Y5885000D01*
Y5893000D01*
X7078250Y5858500D02*
Y5891750D01*
Y5858500D02*
X7100000Y5836750D01*
X7097000Y5910000D02*
X7129500Y5942500D01*
X7078000Y5910000D02*
X7097000D01*
X7009700Y5934500D02*
X7041000D01*
X7051000Y5924500D01*
Y5910000D02*
Y5924500D01*
X6962400Y5956400D02*
X6963250Y5955550D01*
Y5910000D02*
Y5955550D01*
X6937000Y5956400D02*
X6954250Y5939150D01*
Y5910000D02*
Y5939150D01*
X6963250Y5857250D02*
X6999250Y5821250D01*
X6963250Y5857250D02*
Y5893000D01*
X6924250Y5747250D02*
Y5872000D01*
X6936250Y5884000D01*
Y5893000D01*
X6911600Y5891350D02*
X6930250Y5910000D01*
X6936250D01*
X6830000Y5828750D02*
X6846250Y5812500D01*
X6830000Y5892667D02*
X6830833Y5893500D01*
X6830000Y5892667D02*
Y5893000D01*
Y5828750D02*
Y5892667D01*
X6821000Y5775500D02*
X6851750Y5744750D01*
X6821000Y5775500D02*
Y5893000D01*
X6846833Y5893500D02*
X6848500Y5891833D01*
Y5875750D02*
Y5891833D01*
Y5875750D02*
X6896750Y5827500D01*
X6860250Y5909250D02*
X6897750Y5946750D01*
X6849583Y5909250D02*
X6860250D01*
X6846833Y5906500D02*
X6849583Y5909250D01*
X6830000Y5925600D02*
X6860800Y5956400D01*
X6830000Y5910000D02*
Y5925600D01*
X6807500Y5905500D02*
X6812000Y5910000D01*
X6821000D01*
X6705750Y5953750D02*
X6708400Y5956400D01*
X6705750Y5910000D02*
Y5953750D01*
X6714750Y5937350D02*
X6733800Y5956400D01*
X6714750Y5910000D02*
Y5937350D01*
X6705750Y5881750D02*
Y5893000D01*
X6695750Y5871750D02*
X6705750Y5881750D01*
X6695750Y5759250D02*
Y5871750D01*
X6714750Y5853750D02*
X6720500Y5848000D01*
X6714750Y5853750D02*
Y5893000D01*
X6732750Y5866250D02*
X6770750Y5828250D01*
X6732750Y5866250D02*
Y5893000D01*
X6810200Y7055200D02*
X6813000D01*
X8182000Y5535828D02*
X8197172Y5551000D01*
X8228000D01*
X8187636Y5531829D02*
X8197808Y5542000D01*
X8228000D01*
X8192636Y5527828D02*
X8197808Y5533000D01*
X8228000D01*
X7748142Y5523828D02*
X8227828D01*
X7746486Y5519828D02*
X8186000D01*
X8196829Y5509000D02*
X8228000D01*
X8186000Y5519828D02*
X8196829Y5509000D01*
X7744828Y5515828D02*
X8176000D01*
X8191829Y5500000D01*
X8228000D01*
X7744000Y5511000D02*
X8173000D01*
X8193000Y5491000D01*
X8228000D01*
X7607600Y7195400D02*
Y7224600D01*
Y7195400D02*
X7628000Y7175000D01*
X7645000D01*
X7594900Y7196528D02*
Y7224600D01*
Y7196528D02*
X7626143Y7165286D01*
X7582200Y7180657D02*
Y7224600D01*
Y7180657D02*
X7607286Y7155571D01*
X7569500Y7164786D02*
X7588428Y7145857D01*
X7569500Y7164786D02*
Y7224600D01*
X7556800Y7148914D02*
X7569572Y7136143D01*
X7544100Y7133043D02*
X7550714Y7126429D01*
X7544100Y7133043D02*
Y7224600D01*
X7531400D02*
X7531857Y7224143D01*
Y7116714D02*
Y7224143D01*
X7513000Y7107000D02*
Y7110386D01*
X7518700Y7116086D01*
Y7224600D01*
X7887000Y7175000D02*
Y7224600D01*
X7878000Y7166000D02*
X7887000Y7175000D01*
X8063000Y6995500D02*
X8075500Y7008000D01*
X8063000Y6972000D02*
Y6995500D01*
X7980000Y6889000D02*
X8063000Y6972000D01*
X7980000Y6806000D02*
Y6889000D01*
X7974000Y6800000D02*
X7980000Y6806000D01*
X7740450Y6800000D02*
X7974000D01*
X7722950Y6817500D02*
X7740450Y6800000D01*
X7709450Y6831000D02*
X7722950Y6817500D01*
X7669000Y6831000D02*
X7709450D01*
X7659000Y6821000D02*
X7669000Y6831000D01*
X7659000Y6811000D02*
Y6821000D01*
X7651000Y6803000D02*
X7659000Y6811000D01*
X7629000Y6803000D02*
X7651000D01*
X7602000Y6830000D02*
X7629000Y6803000D01*
X7408000Y6830000D02*
X7602000D01*
X7395800Y6817800D02*
X7408000Y6830000D01*
X7395800Y6817500D02*
Y6817800D01*
X6935250Y5576250D02*
X6947000Y5564500D01*
X6985500D01*
X7031500Y5610500D01*
X7098250D01*
X7112500Y5624750D01*
Y5641250D01*
X6999250Y5625750D02*
Y5821250D01*
X6954750Y5581250D02*
X6999250Y5625750D01*
X7011000Y5625500D02*
Y5772500D01*
X6860000Y5580000D02*
Y5604500D01*
X6860750Y5605250D01*
X6771750Y5633750D02*
Y5795000D01*
X6770750Y5796000D02*
X6771750Y5795000D01*
X6759200Y5956400D02*
X6763000Y5952600D01*
X6680000Y5953400D02*
X6683000Y5956400D01*
X7505000Y5750000D02*
X7744000Y5511000D01*
X7505000Y5750000D02*
Y5894000D01*
X7773000Y5420800D02*
X7773800Y5420000D01*
X6594000Y5987000D02*
X7168000D01*
X6595657Y5991000D02*
X7169657D01*
X7509000Y5751657D02*
Y5895657D01*
Y5751657D02*
X7744828Y5515828D01*
X7513000Y5753314D02*
X7746486Y5519828D01*
X7513000Y5753314D02*
Y5897314D01*
X6634000Y5995000D02*
X7171313D01*
X6636000Y5999000D02*
X7172971D01*
X7517000Y5754971D02*
Y5898970D01*
Y5754971D02*
X7748142Y5523828D01*
X7749799Y5527828D02*
X8192636D01*
X7521000Y5756627D02*
X7749799Y5527828D01*
X7521000Y5756627D02*
Y5900627D01*
X6692000Y6003000D02*
X7174628D01*
X6693657Y6007000D02*
X7176284D01*
X7525000Y5758284D02*
Y5902284D01*
Y5758284D02*
X7751456Y5531829D01*
X7753113Y5535828D02*
X8182000D01*
X7529000Y5759941D02*
X7753113Y5535828D01*
X7529000Y5759941D02*
Y5903941D01*
X6735000Y6011000D02*
X7177941D01*
X6546000Y6035000D02*
Y6077600D01*
X6533800Y6089800D02*
X6546000Y6077600D01*
X6559200Y6087800D02*
Y6089800D01*
Y6087800D02*
X6573828Y6073171D01*
Y6012828D02*
Y6073171D01*
X6598000Y6031000D02*
Y6076400D01*
X6584600Y6089800D02*
X6598000Y6076400D01*
X6610000Y6089800D02*
X6622000Y6077800D01*
Y6013000D02*
Y6077800D01*
X6649000Y6046000D02*
X6692000Y6003000D01*
X6649000Y6046000D02*
Y6076200D01*
X6635400Y6089800D02*
X6649000Y6076200D01*
X6674000Y6026657D02*
X6693657Y6007000D01*
X6701000Y6045000D02*
Y6075000D01*
X6686200Y6089800D02*
X6701000Y6075000D01*
X6660800Y6089800D02*
X6674000Y6076600D01*
Y6026657D02*
Y6076600D01*
X6546000Y6035000D02*
X6594000Y5987000D01*
X6573828Y6012828D02*
X6595657Y5991000D01*
X6598000Y6031000D02*
X6634000Y5995000D01*
X6622000Y6013000D02*
X6636000Y5999000D01*
X6701000Y6045000D02*
X6735000Y6011000D01*
X7168000Y5987000D02*
X7188000Y5967000D01*
X7169657Y5991000D02*
X7189657Y5971000D01*
X7171313Y5995000D02*
X7191313Y5975000D01*
X7172971Y5999000D02*
X7192971Y5979000D01*
X7174628Y6003000D02*
X7194627Y5983000D01*
X7176284Y6007000D02*
X7196284Y5987000D01*
X7188000Y5967000D02*
X7432000D01*
X7505000Y5894000D01*
X7189657Y5971000D02*
X7433657D01*
X7509000Y5895657D01*
X7191313Y5975000D02*
X7435314D01*
X7513000Y5897314D01*
X7192971Y5979000D02*
X7436970D01*
X7517000Y5898970D01*
X7194627Y5983000D02*
X7438627D01*
X7521000Y5900627D01*
X7196284Y5987000D02*
X7440284D01*
X7525000Y5902284D01*
X7177941Y6011000D02*
X7197941Y5991000D01*
X7441941D01*
X7529000Y5903941D01*
X7751456Y5531829D02*
X8187636D01*
X6813250Y5652750D02*
Y5725250D01*
Y5652750D02*
X6860750Y5605250D01*
X6830250Y5700500D02*
Y5714500D01*
X6828000Y5716750D02*
X6830250Y5714500D01*
X6828000Y5716750D02*
Y5725500D01*
X6837000Y5713083D02*
X6840333Y5716417D01*
X6837000Y5646750D02*
Y5713083D01*
X6840333Y5716417D02*
Y5721917D01*
X6849000Y5645500D02*
X6863000Y5631500D01*
X6849000Y5645500D02*
Y5676000D01*
X6841000Y5684000D02*
X6849000Y5676000D01*
X6896750Y5794750D02*
Y5827500D01*
X6861000Y5646750D02*
Y5691500D01*
X6879000Y5709500D01*
Y5777000D01*
X6896750Y5794750D01*
X6841000Y5704500D02*
X6851750Y5715250D01*
X6841000Y5684000D02*
Y5704500D01*
X6851750Y5715250D02*
Y5744750D01*
X6849000Y5698000D02*
Y5705750D01*
X6872000Y5728750D01*
Y5810000D01*
X6838833Y5843167D02*
X6872000Y5810000D01*
X6838833Y5843167D02*
Y5893500D01*
X6846250Y5773500D02*
X6859750Y5760000D01*
X6846250Y5773500D02*
Y5812500D01*
X6738579Y5722171D02*
Y5723779D01*
Y5722171D02*
X6742250Y5718500D01*
Y5653750D02*
Y5718500D01*
Y5653750D02*
X6752500Y5643500D01*
Y5640500D02*
Y5643500D01*
X6727000Y5659093D02*
X6728600Y5657493D01*
X6733578Y5651671D02*
X6740250Y5645000D01*
X6733578Y5651671D02*
Y5704028D01*
X6715750Y5653500D02*
X6723000Y5660750D01*
X6727000Y5659093D02*
Y5708599D01*
X6720500Y5709442D02*
Y5848000D01*
X6724500Y5764750D02*
X6746500Y5786750D01*
X6724500Y5711099D02*
Y5764750D01*
Y5711099D02*
X6727000Y5708599D01*
X6720500Y5709442D02*
X6723000Y5706942D01*
Y5660750D02*
Y5706942D01*
X6724000Y5862250D02*
Y5893500D01*
Y5862250D02*
X6746500Y5839750D01*
Y5786750D02*
Y5839750D01*
X6715750Y5640500D02*
Y5653500D01*
X6695750Y5759250D02*
X6716500Y5738500D01*
Y5704250D02*
Y5738500D01*
X6911600Y5804000D02*
Y5891350D01*
X7500000Y7090000D02*
X7705657D01*
X7319600Y6909600D02*
X7500000Y7090000D01*
X7319600Y6842900D02*
Y6909600D01*
X7377500Y6785000D02*
X7704650D01*
X7672150Y6817500D02*
X7704650Y6785000D01*
X8189000Y6802000D02*
Y6852000D01*
X8172000Y6785000D02*
X8189000Y6802000D01*
X8176550Y6117750D02*
X8291300Y6232500D01*
X7150600Y6148750D02*
X7883650D01*
X7967400Y6232500D01*
X7079000Y6077050D02*
Y6096793D01*
X7163207Y6181000D01*
X7630250Y6216000D02*
X7646750Y6232500D01*
Y6257900D02*
X7658000Y6246650D01*
Y6220000D02*
Y6246650D01*
X7640000Y6202000D02*
X7658000Y6220000D01*
X7606000Y6202000D02*
X7640000D01*
X7302100Y6215000D02*
X7319600Y6232500D01*
X7333000Y6228000D02*
Y6244500D01*
X7307000Y6202000D02*
X7333000Y6228000D01*
X7279000Y6202000D02*
X7307000D01*
X7319600Y6257900D02*
X7333000Y6244500D01*
X7921000Y6889300D02*
Y7148000D01*
X7912400Y7156600D02*
X7921000Y7148000D01*
X7912400Y7156600D02*
Y7224600D01*
X7785000Y7131000D02*
X7879000D01*
X7767000D02*
X7785000D01*
X7770000Y7146000D02*
X7785000Y7131000D01*
X7761657Y7146000D02*
X7770000D01*
X7705657Y7090000D02*
X7761657Y7146000D01*
X7307000Y6914000D02*
X7489000Y7096000D01*
X7307000Y6830100D02*
Y6914000D01*
Y6830100D02*
X7319600Y6817500D01*
X7657000Y7082000D02*
X7710000D01*
X7610000Y7035000D02*
X7657000Y7082000D01*
X7610000Y6854250D02*
Y7035000D01*
Y6854250D02*
X7646750Y6817500D01*
X7623000Y6866650D02*
X7646750Y6842900D01*
X7623000Y6866650D02*
Y7033000D01*
X7665000Y7075000D01*
X7711000D01*
X7767000Y7131000D01*
X7879000D02*
X7902000Y7154000D01*
X7921000Y6889300D02*
X7967400Y6842900D01*
X7489000Y7096000D02*
X7706000D01*
X7766000Y7156000D01*
X7710000Y7082000D02*
X7766000Y7138000D01*
Y7120000D02*
X7846000Y7040000D01*
Y6938900D02*
Y7040000D01*
Y6938900D02*
X7967400Y6817500D01*
X7493300Y7148300D02*
Y7224600D01*
X7475000Y7130000D02*
X7493300Y7148300D01*
X7480600Y7153156D02*
Y7224600D01*
X7464445Y7137000D02*
X7480600Y7153156D01*
X7467900Y7158011D02*
Y7224600D01*
X7453889Y7144000D02*
X7467900Y7158011D01*
X7455200Y7162867D02*
Y7224600D01*
X7443333Y7151000D02*
X7455200Y7162867D01*
X7556800Y7148914D02*
Y7224600D01*
X7366300Y7184700D02*
Y7224600D01*
Y7184700D02*
X7375000Y7176000D01*
X7414000D01*
X7353600Y7179400D02*
X7364667Y7168333D01*
X7404667D01*
X7340900Y7180100D02*
X7360333Y7160667D01*
X7395333D01*
X7356000Y7153000D02*
X7386000D01*
X7353600Y7179400D02*
Y7224600D01*
X7340900Y7180100D02*
Y7224600D01*
X7328200Y7180800D02*
Y7224600D01*
Y7180800D02*
X7355000Y7154000D01*
X7277300Y7176700D02*
X7312000Y7142000D01*
X7277300Y7176700D02*
Y7224000D01*
X7264400Y7172600D02*
Y7223800D01*
Y7172600D02*
X7304000Y7133000D01*
X7251900Y7166100D02*
Y7224000D01*
X7253000Y7165000D02*
X7294000Y7124000D01*
X7239200Y7160800D02*
Y7224000D01*
Y7160800D02*
X7285000Y7115000D01*
X7798343Y7008000D02*
X7799150D01*
X7264400Y7223800D02*
X7264600Y7224000D01*
X-245000Y15903500D02*
Y15904250D01*
Y15903500D02*
Y15904250D01*
X7137000Y6127000D02*
X7893000D01*
X7929858Y6163858D01*
X7105000Y6095000D02*
X7137000Y6127000D01*
X7105000Y6077750D02*
Y6095000D01*
X8192000Y6113000D02*
X8244858Y6165858D01*
X7165750Y6113000D02*
X8192000D01*
X8259000Y6180000D02*
X8304000Y6225000D01*
Y6245200D01*
X8291300Y6257900D02*
X8304000Y6245200D01*
X7145100Y6117750D02*
X8176550D01*
X7992800Y6817500D02*
X8025300Y6785000D01*
X7704650D02*
X8025300D01*
X8172000D01*
X8518701Y6329000D02*
X8615200Y6232500D01*
X7041350Y7006650D02*
Y7030000D01*
X7125000Y6411000D02*
X7194000Y6342000D01*
X7125000Y6411000D02*
Y6923000D01*
X7041350Y7006650D02*
X7125000Y6923000D01*
X7129000Y6412657D02*
X7195657Y6346000D01*
X7129000Y6412657D02*
Y6924657D01*
X7053000Y7000657D02*
X7129000Y6924657D01*
X7053000Y7000657D02*
Y7043750D01*
X7041350Y7055400D02*
X7053000Y7043750D01*
X7133000Y6693600D02*
X7316600Y6510000D01*
X7133000Y6693600D02*
Y6929000D01*
X7066550Y6995450D02*
Y7030000D01*
Y6995450D02*
X7133000Y6929000D01*
X7316600Y6510000D02*
X7341600Y6485000D01*
X7618750D01*
X7643750Y6510000D01*
X7166350Y6215000D02*
X7302100D01*
X7054000Y6077250D02*
Y6096993D01*
X7159007Y6202000D01*
X7259000D01*
X7161550Y6185000D02*
X7541000D01*
X7572000Y6216000D01*
X7630250D01*
X7542657Y6181000D02*
X7563657Y6202000D01*
X7586000D01*
X7163207Y6181000D02*
X7542657D01*
X7345000Y6817500D02*
X7377500Y6785000D01*
X7824000Y7168000D02*
Y7224100D01*
X7823500Y7224600D02*
X7824000Y7224100D01*
X7836000Y7172500D02*
Y7224400D01*
X7848900Y7176100D02*
Y7224600D01*
X7937800Y7149200D02*
Y7224600D01*
Y7149200D02*
X7947000Y7140000D01*
X7824000Y7168000D02*
X7836000Y7156000D01*
Y7172500D02*
X7852500Y7156000D01*
X7848900Y7176100D02*
X7869000Y7156000D01*
X6732000Y5906500D02*
Y5913750D01*
X6772750Y5954500D01*
Y5966500D01*
X6765000Y5974250D02*
X6772750Y5966500D01*
X6700850Y5974250D02*
X6765000D01*
X6683000Y5956400D02*
X6700850Y5974250D01*
X6838833Y5906500D02*
Y5919833D01*
X6857750Y5938750D01*
X6868550D01*
X6886200Y5956400D01*
X6897750Y5946750D02*
Y5963750D01*
X6890000Y5971500D02*
X6897750Y5963750D01*
X6850500Y5971500D02*
X6890000D01*
X6835400Y5956400D02*
X6850500Y5971500D01*
X6945667Y5906500D02*
Y5922333D01*
X6987800Y5956400D02*
X7009700Y5934500D01*
X7060500Y5906500D02*
Y5952900D01*
X7064000Y5956400D01*
X7129500Y5942500D02*
Y5961000D01*
X7119750Y5970750D02*
X7129500Y5961000D01*
X7103750Y5970750D02*
X7119750D01*
X7089400Y5956400D02*
X7103750Y5970750D01*
X6935000Y5713500D02*
X6967500Y5681000D01*
Y5648000D02*
Y5681000D01*
X6976250Y5653500D02*
X6992750Y5637000D01*
X6972750Y5700750D02*
Y5721500D01*
X6945667Y5748583D02*
X6972750Y5721500D01*
X6945667Y5823083D02*
Y5893500D01*
Y5823083D02*
X6950750Y5818000D01*
X6945667Y5748583D02*
Y5785917D01*
X6950750Y5791000D01*
Y5818000D01*
X6953666Y5837083D02*
Y5893500D01*
Y5837083D02*
X6972500Y5818250D01*
Y5728750D02*
Y5818250D01*
Y5728750D02*
X6980750Y5720500D01*
X6770750Y5796000D02*
Y5828250D01*
X6967466Y5581967D02*
X7011000Y5625500D01*
Y5772500D02*
X7026250Y5787750D01*
X7060500Y5827000D02*
Y5893500D01*
X7051750Y5818250D02*
X7060500Y5827000D01*
X7051750Y5671250D02*
Y5818250D01*
Y5671250D02*
X7085750Y5637250D01*
X7068500Y5852750D02*
Y5893500D01*
Y5852750D02*
X7077500Y5843750D01*
Y5712500D02*
Y5843750D01*
Y5712500D02*
X7086250Y5703750D01*
X7100000Y5705250D02*
Y5836750D01*
X7099500Y5704750D02*
X7100000Y5705250D01*
X7091000Y5717500D02*
X7092750Y5715750D01*
Y5640750D02*
Y5715750D01*
Y5640750D02*
X7099000Y5634500D01*
X7109000Y5644750D02*
Y5725500D01*
Y5644750D02*
X7112500Y5641250D01*
X6914400Y6198400D02*
X6939800Y6223800D01*
X6959000Y6111000D02*
Y6249000D01*
X6939800Y6091800D02*
X6959000Y6111000D01*
X6692000Y7132000D02*
Y7169750D01*
X6717400Y7132600D02*
Y7169750D01*
X6698000Y6465600D02*
X6939800Y6223800D01*
X6698000Y6465600D02*
Y7126000D01*
X6692000Y7132000D02*
X6698000Y7126000D01*
X6725000Y6483000D02*
X6959000Y6249000D01*
X6725000Y6483000D02*
Y7125000D01*
X6717400Y7132600D02*
X6725000Y7125000D01*
X6924250Y5747250D02*
X6961000Y5710500D01*
X6976250Y5653500D02*
Y5684000D01*
X6934750Y5725500D02*
X6976250Y5684000D01*
X6911600Y5956400D02*
X6945667Y5922333D01*
X7312000Y7142000D02*
X7315000D01*
X6967500Y5648000D02*
X6979500Y5636000D01*
X6740250Y5639750D02*
Y5645000D01*
X6728600Y5640350D02*
Y5657493D01*
X7117350Y6090000D02*
X7145100Y6117750D01*
X7091850Y6090000D02*
X7150600Y6148750D01*
X6914400Y6090000D02*
Y6198400D01*
X7066550Y6090000D02*
X7161550Y6185000D01*
X7041350Y6064600D02*
X7054000Y6077250D01*
X7041350Y6090000D02*
X7166350Y6215000D01*
X7117350Y6064600D02*
X7165750Y6113000D01*
X7091850Y6064600D02*
X7105000Y6077750D01*
X6939800Y6090000D02*
Y6091800D01*
X7066550Y6064600D02*
X7079000Y6077050D01*
X8291300Y6257900D02*
X8343400Y6310000D01*
X7967400Y6257900D02*
X8027500Y6318000D01*
X7646750Y6257900D02*
X7714850Y6326000D01*
X7319600Y6257900D02*
X7395700Y6334000D01*
X7302500Y6249600D02*
X7319600Y6232500D01*
X7195657Y6346000D02*
X8508000D01*
X7302500Y6267500D02*
X7373000Y6338000D01*
X7302500Y6249600D02*
Y6267500D01*
X7630000Y6249250D02*
X7646750Y6232500D01*
X7630000Y6249250D02*
Y6265750D01*
X7694250Y6330000D01*
X7952400Y6247500D02*
X7967400Y6232500D01*
X8277500Y6246300D02*
X8291300Y6232500D01*
X8277500Y6246300D02*
Y6265000D01*
X8326500Y6314000D01*
X7952400Y6247500D02*
Y6264900D01*
X8009500Y6322000D01*
X8615200Y6257900D02*
X8627500Y6245601D01*
X8793500Y6123500D02*
X8862500Y6192500D01*
X8791843Y6127500D02*
X8858500Y6194157D01*
X8791187Y6132500D02*
X8854500Y6195814D01*
X8789529Y6136500D02*
X8850500Y6197471D01*
X8787873Y6140500D02*
X8846500Y6199127D01*
X8786216Y6144500D02*
X8842500Y6200784D01*
X8784559Y6148500D02*
X8838500Y6202441D01*
X8782902Y6152500D02*
X8834500Y6204098D01*
X8781245Y6156500D02*
X8830500Y6205755D01*
X8779589Y6160500D02*
X8826500Y6207411D01*
X8531000Y6219000D02*
X8626500Y6123500D01*
X8793500D01*
X8535000Y6220657D02*
X8628157Y6127500D01*
X8791843D01*
X8542500Y6218813D02*
X8628813Y6132500D01*
X8791187D01*
X8546500Y6220471D02*
X8630471Y6136500D01*
X8789529D01*
X8550500Y6222127D02*
X8632127Y6140500D01*
X8787873D01*
X8554500Y6223784D02*
X8633784Y6144500D01*
X8786216D01*
X8558500Y6225441D02*
X8635441Y6148500D01*
X8784559D01*
X8562500Y6227098D02*
X8637098Y6152500D01*
X8782902D01*
X8615200Y6180054D02*
Y6232500D01*
Y6180054D02*
X8638755Y6156500D01*
X8781245D01*
X8627500Y6173411D02*
Y6245601D01*
Y6173411D02*
X8640411Y6160500D01*
X8779589D01*
X7194000Y6342000D02*
X8487000D01*
X8562500Y6227098D02*
Y6260000D01*
X7373000Y6338000D02*
X8484500D01*
X8558500Y6225441D02*
Y6258343D01*
X7395700Y6334000D02*
X8482843D01*
X8554500Y6223784D02*
Y6256686D01*
X7694250Y6330000D02*
X8481187D01*
X8550500Y6222127D02*
Y6255029D01*
X7714850Y6326000D02*
X8479529D01*
X8546500Y6220471D02*
Y6253373D01*
X8009500Y6322000D02*
X8477872D01*
X8542500Y6218813D02*
Y6251716D01*
X8027500Y6318000D02*
X8476216D01*
X8487000Y6342000D02*
X8500000Y6329000D01*
X8518701D01*
X8484500Y6338000D02*
X8562500Y6260000D01*
X8482843Y6334000D02*
X8558500Y6258343D01*
X8481187Y6330000D02*
X8554500Y6256686D01*
X8479529Y6326000D02*
X8550500Y6255029D01*
X8477872Y6322000D02*
X8546500Y6253373D01*
X8476216Y6318000D02*
X8542500Y6251716D01*
X8343400Y6310000D02*
X8472500D01*
X8531000Y6251500D01*
Y6219000D02*
Y6251500D01*
X8474157Y6314000D02*
X8535000Y6253157D01*
X8326500Y6314000D02*
X8474157D01*
X8535000Y6220657D02*
Y6253157D01*
X8275000Y7010000D02*
X8358000Y6927000D01*
X8275000Y7037500D02*
X8287828Y7024672D01*
Y7002828D02*
Y7024672D01*
Y7002828D02*
X8359657Y6931000D01*
X8300400Y7010000D02*
X8375400Y6935000D01*
X8300400Y7037500D02*
X8313029Y7024872D01*
Y7003029D02*
Y7024872D01*
Y7003029D02*
X8377057Y6939000D01*
X8325800Y7010000D02*
X8392800Y6943000D01*
X8325800Y7037500D02*
X8337500Y7025800D01*
Y7003957D02*
Y7025800D01*
Y7003957D02*
X8394457Y6947000D01*
X8351200Y7010000D02*
X8410200Y6951000D01*
X8351200Y7037500D02*
X8433700Y6955000D01*
X8351200Y7065000D02*
X8457200Y6959000D01*
X8351500Y7091500D02*
X8480000Y6963000D01*
X8672000D01*
X8862500Y6772500D01*
Y6192500D02*
Y6772500D01*
X8670343Y6959000D02*
X8858500Y6770843D01*
Y6194157D02*
Y6770843D01*
X8668687Y6955000D02*
X8854500Y6769186D01*
Y6195814D02*
Y6769186D01*
X8667029Y6951000D02*
X8850500Y6767529D01*
Y6197471D02*
Y6767529D01*
X8665373Y6947000D02*
X8846500Y6765873D01*
Y6199127D02*
Y6765873D01*
X8392800Y6943000D02*
X8663716D01*
X8842500Y6764216D01*
Y6200784D02*
Y6764216D01*
X8662059Y6939000D02*
X8838500Y6762559D01*
Y6202441D02*
Y6762559D01*
X8375400Y6935000D02*
X8660402D01*
X8834500Y6760902D01*
Y6204098D02*
Y6760902D01*
X8658745Y6931000D02*
X8830500Y6759245D01*
Y6205755D02*
Y6759245D01*
X8358000Y6927000D02*
X8657089D01*
X8826500Y6757589D01*
Y6207411D02*
Y6757589D01*
X8457200Y6959000D02*
X8670343D01*
X8433700Y6955000D02*
X8668687D01*
X8410200Y6951000D02*
X8667029D01*
X8394457Y6947000D02*
X8665373D01*
X8377057Y6939000D02*
X8662059D01*
X8359657Y6931000D02*
X8658745D01*
X8137500Y6890000D02*
X8260000Y7012500D01*
Y7040000D01*
X8270000Y7050000D01*
X8285400D01*
X8300400Y7065000D01*
X8252500Y7042500D02*
X8275000Y7065000D01*
X8252500Y7015000D02*
Y7042500D01*
X8140000Y6902500D02*
X8252500Y7015000D01*
X8135000Y6902500D02*
X8140000D01*
D26*
X7318000Y6536800D02*
Y6635000D01*
X8043600Y6817500D02*
X8055750Y6829650D01*
X7643750Y6535400D02*
X7702350Y6594000D01*
X7318000Y6635000D02*
X7544150D01*
X7317750D02*
X7318000D01*
X7544150D02*
X7643750Y6535400D01*
X7992800Y6817500D02*
X8005000Y6829700D01*
Y6865000D01*
X8035000Y6895000D01*
X7643750Y6510000D02*
X7675750Y6478000D01*
X7140000Y6712000D02*
Y6943000D01*
X7079000Y7004000D02*
X7140000Y6943000D01*
X7079000Y7004000D02*
Y7042950D01*
X7140000Y6712000D02*
X7196000Y6656000D01*
X7320500Y6793000D02*
X7345000Y6817500D01*
X7274000Y6793000D02*
X7320500D01*
X7246000Y6821000D02*
X7274000Y6793000D01*
X7246000Y6821000D02*
Y6901350D01*
X7117350Y7030000D02*
X7246000Y6901350D01*
X7944000Y6178000D02*
X7980000Y6214000D01*
X7967400Y6257900D02*
X7980000Y6245300D01*
Y6214000D02*
Y6245300D01*
X8528000Y6345100D02*
X8615200Y6257900D01*
X7066550Y7055400D02*
X7079000Y7042950D01*
X7008000Y6510000D02*
X7036000D01*
X7042000Y6519000D02*
X7051000Y6510000D01*
X7019000Y6519000D02*
X7042000D01*
X6975000Y6563000D02*
X7019000Y6519000D01*
X6975000Y6563000D02*
Y7020200D01*
X6939800Y7055400D02*
X6975000Y7020200D01*
X6969000Y6549000D02*
X7008000Y6510000D01*
X6969000Y6549000D02*
Y7000800D01*
X6939800Y7030000D02*
X6969000Y7000800D01*
X6724000Y5906500D02*
Y5921200D01*
X6759200Y5956400D01*
X7068500Y5906500D02*
Y5926250D01*
X7080000Y5937750D01*
X7096150D01*
X7114800Y5956400D01*
X7675750Y6478000D02*
X7874000D01*
X8161000Y6765000D01*
X8441000D01*
X7702350Y6594000D02*
X7983580D01*
X8165579Y6776000D01*
X8536000Y6670000D02*
Y6716000D01*
X8441000Y6765000D02*
X8536000Y6670000D01*
X8608000Y6598000D01*
X8536000Y6741400D02*
Y6758000D01*
X8554000Y6776000D01*
X8165579D02*
X8554000D01*
X8608000D01*
X7196000Y6656000D02*
X7318000D01*
X8264000Y7091500D02*
X8275300D01*
X8180000Y7007500D02*
X8264000Y7091500D01*
X8300400Y7090400D02*
Y7096900D01*
X8290000Y7080000D02*
X8300400Y7090400D01*
X8082500Y6895000D02*
X8180000Y6992500D01*
Y7007500D01*
X8055750Y6829650D02*
Y6861829D01*
X8273920Y7080000D02*
X8290000D01*
X8055750Y6861829D02*
X8273920Y7080000D01*
X8035000Y6895000D02*
X8082500D01*
D27*
X7091850Y7030000D02*
X7184000Y6937850D01*
Y6804000D02*
Y6937850D01*
Y6804000D02*
X7272000Y6716000D01*
X7674000D01*
X7747000Y6643000D01*
X7963000D01*
X6310100Y5721600D02*
X6347800D01*
X6310000Y5830000D02*
X6348000D01*
X6310000Y5958000D02*
X6348000D01*
X6273500Y5721500D02*
X6290000D01*
X6273000Y5830000D02*
X6290000D01*
X6274000Y5958000D02*
X6290000D01*
X6273000Y5957000D02*
X6274000Y5958000D01*
D29*
X7392800Y5420000D02*
X7394000Y5421200D01*
Y5445000D01*
X7584000Y5635000D01*
X7367400Y5420000D02*
Y5443600D01*
X7572900Y5649100D01*
X7163000Y7174000D02*
X7175700Y7186700D01*
Y7224000D01*
X7163000D02*
X7175700D01*
X7188400D02*
X7201100D01*
X7213800D01*
X7201100Y7087400D02*
Y7224000D01*
Y7087400D02*
X7202250Y7086250D01*
X7213800Y7224000D02*
X7226500D01*
X7645700Y7224600D02*
X7658400D01*
X7671100D01*
X7683800D01*
X7696500D01*
X7709200D01*
X7721900D01*
X7734600D01*
X7747300D01*
X7760000D01*
X6254000Y6122000D02*
X6260000Y6128000D01*
X7024200Y6948200D02*
X7039000Y6963000D01*
X7024200Y6925250D02*
Y6948200D01*
X7075000Y6925250D02*
Y6947000D01*
X7059000Y6963000D02*
X7075000Y6947000D01*
X7049600Y6882650D02*
Y6925250D01*
X7072250Y6880000D02*
X7075000Y6882750D01*
Y6925250D01*
X6254000Y6090000D02*
Y6122000D01*
D30*
X7861600Y7224600D02*
X7862000Y7224200D01*
Y7174000D02*
Y7224200D01*
D31*
X6653250Y5752000D02*
X6662250Y5761000D01*
X6581100Y5752000D02*
X6653250D01*
D36*
X8351500Y7091500D02*
D03*
X8326100D02*
D03*
X8300700D02*
D03*
X8275300D02*
D03*
X8693200Y5381000D02*
D03*
X8667800D02*
D03*
X8642400D02*
D03*
X8617000D02*
D03*
X8591600D02*
D03*
X8566200D02*
D03*
X8540800D02*
D03*
X7075000Y6925250D02*
D03*
X7049600D02*
D03*
X7024200D02*
D03*
X6402000Y5933000D02*
D03*
X6348000D02*
D03*
X6402000Y5958000D02*
D03*
Y5908000D02*
D03*
X6348000D02*
D03*
Y5958000D02*
D03*
X6402000Y5805000D02*
D03*
X6348000D02*
D03*
X6402000Y5830000D02*
D03*
Y5780000D02*
D03*
X6348000D02*
D03*
Y5830000D02*
D03*
X6401800Y5696600D02*
D03*
X6347800D02*
D03*
X6401800Y5721600D02*
D03*
Y5671600D02*
D03*
X6347800D02*
D03*
Y5721600D02*
D03*
X6504900Y5752000D02*
D03*
Y5777400D02*
D03*
Y5802800D02*
D03*
Y5828200D02*
D03*
Y5853600D02*
D03*
Y5879000D02*
D03*
Y5904400D02*
D03*
Y5929800D02*
D03*
X6581100D02*
D03*
Y5904400D02*
D03*
Y5879000D02*
D03*
Y5853600D02*
D03*
Y5828200D02*
D03*
Y5802800D02*
D03*
Y5777400D02*
D03*
Y5752000D02*
D03*
X6899700Y7169750D02*
D03*
X6874300D02*
D03*
X6848900D02*
D03*
X6823500D02*
D03*
X6742800D02*
D03*
X6717400D02*
D03*
X6692000D02*
D03*
X6666600D02*
D03*
X6683000Y5804000D02*
D03*
X6708400D02*
D03*
X6733800D02*
D03*
X6759200D02*
D03*
X6784600D02*
D03*
X6810000D02*
D03*
X6835400D02*
D03*
X6860800D02*
D03*
X6886200D02*
D03*
X6911600D02*
D03*
X6937000D02*
D03*
X6962400D02*
D03*
X6987800D02*
D03*
X7013200D02*
D03*
X7038600D02*
D03*
X7064000D02*
D03*
X7089400D02*
D03*
X7114800D02*
D03*
Y5956400D02*
D03*
X7089400D02*
D03*
X7064000D02*
D03*
X7038600D02*
D03*
X7013200D02*
D03*
X6987800D02*
D03*
X6962400D02*
D03*
X6937000D02*
D03*
X6911600D02*
D03*
X6886200D02*
D03*
X6860800D02*
D03*
X6835400D02*
D03*
X6810000D02*
D03*
X6784600D02*
D03*
X6759200D02*
D03*
X6733800D02*
D03*
X6708400D02*
D03*
X6683000D02*
D03*
X6343700Y5480300D02*
D03*
X6243700D02*
D03*
X6507000Y7145600D02*
D03*
Y7171000D02*
D03*
Y7196400D02*
D03*
X6228600Y7055400D02*
D03*
X6254000D02*
D03*
X6279400D02*
D03*
X6330200D02*
D03*
X6355600D02*
D03*
X6381000D02*
D03*
X6406400D02*
D03*
X6431800D02*
D03*
X6457200D02*
D03*
X6482600D02*
D03*
X6508000D02*
D03*
X6533400D02*
D03*
X6558800D02*
D03*
X6584200D02*
D03*
X6609600D02*
D03*
X6635000D02*
D03*
X6660400D02*
D03*
X6685800D02*
D03*
X6711200D02*
D03*
X6736600D02*
D03*
X6762000D02*
D03*
X6787400D02*
D03*
X6812800D02*
D03*
X6838200D02*
D03*
X6863600D02*
D03*
X6889000D02*
D03*
X6914400D02*
D03*
X6939800D02*
D03*
X7041350D02*
D03*
X7066550D02*
D03*
X7091850D02*
D03*
X7117350D02*
D03*
Y7030000D02*
D03*
X7091850D02*
D03*
X7066550D02*
D03*
X7041350D02*
D03*
X6939800D02*
D03*
X6914400D02*
D03*
X6889000D02*
D03*
X6863600D02*
D03*
X6838200D02*
D03*
X6812800D02*
D03*
X6787400D02*
D03*
X6762000D02*
D03*
X6736600D02*
D03*
X6711200D02*
D03*
X6685800D02*
D03*
X6660400D02*
D03*
X6635000D02*
D03*
X6609600D02*
D03*
X6584200D02*
D03*
X6558800D02*
D03*
X6533400D02*
D03*
X6508000D02*
D03*
X6482600D02*
D03*
X6457200D02*
D03*
X6431800D02*
D03*
X6406400D02*
D03*
X6381000D02*
D03*
X6355600D02*
D03*
X6330200D02*
D03*
X6279400D02*
D03*
X6254000D02*
D03*
X6228600D02*
D03*
X6228500Y6090150D02*
D03*
X6253900D02*
D03*
X6279300D02*
D03*
X6330100D02*
D03*
X6355500D02*
D03*
X6380900D02*
D03*
X6406300D02*
D03*
X6431700D02*
D03*
X6457100D02*
D03*
X6482500D02*
D03*
X6507900D02*
D03*
X6533300D02*
D03*
X6558700D02*
D03*
X6584100D02*
D03*
X6609500D02*
D03*
X6634900D02*
D03*
X6660300D02*
D03*
X6685700D02*
D03*
X6711100D02*
D03*
X6736500D02*
D03*
X6761900D02*
D03*
X6787300D02*
D03*
X6812700D02*
D03*
X6838100D02*
D03*
X6863500D02*
D03*
X6888900D02*
D03*
X6914300D02*
D03*
X6939700D02*
D03*
X7041250D02*
D03*
X7066450D02*
D03*
X7091750D02*
D03*
X7117250D02*
D03*
Y6064750D02*
D03*
X7091750D02*
D03*
X7066450D02*
D03*
X7041250D02*
D03*
X6939700D02*
D03*
X6914300D02*
D03*
X6888900D02*
D03*
X6863500D02*
D03*
X6838100D02*
D03*
X6812700D02*
D03*
X6787300D02*
D03*
X6761900D02*
D03*
X6736500D02*
D03*
X6711100D02*
D03*
X6685700D02*
D03*
X6660300D02*
D03*
X6634900D02*
D03*
X6609500D02*
D03*
X6584100D02*
D03*
X6558700D02*
D03*
X6533300D02*
D03*
X6507900D02*
D03*
X6482500D02*
D03*
X6457100D02*
D03*
X6431700D02*
D03*
X6406300D02*
D03*
X6380900D02*
D03*
X6355500D02*
D03*
X6330100D02*
D03*
X6279300D02*
D03*
X6253900D02*
D03*
X6228500D02*
D03*
X8275000Y7065000D02*
D03*
X8300400D02*
D03*
X8325800D02*
D03*
X8351200D02*
D03*
Y7037500D02*
D03*
X8325800D02*
D03*
X8300400D02*
D03*
X8275000D02*
D03*
Y7010000D02*
D03*
X8300400D02*
D03*
X8325800D02*
D03*
X8351200D02*
D03*
D37*
X8608000Y6598000D02*
D03*
Y6776000D02*
D03*
D38*
Y6623000D02*
D03*
Y6801000D02*
D03*
D39*
X8659000Y6649000D02*
D03*
Y6547000D02*
D03*
Y6827000D02*
D03*
Y6725000D02*
D03*
D40*
X8536000Y6716000D02*
D03*
Y6741400D02*
D03*
X7497400Y6232500D02*
D03*
X7472000D02*
D03*
X7446600D02*
D03*
X7421200D02*
D03*
X7395800D02*
D03*
X7370400D02*
D03*
X7345000D02*
D03*
X7319600D02*
D03*
Y6257900D02*
D03*
X7370400D02*
D03*
X7345000D02*
D03*
X7395800D02*
D03*
X7421200D02*
D03*
X7446600D02*
D03*
X7472000D02*
D03*
X7497400D02*
D03*
X7494400Y6510000D02*
D03*
X7469000D02*
D03*
X7443600D02*
D03*
X7418200D02*
D03*
X7392800D02*
D03*
X7367400D02*
D03*
X7342000D02*
D03*
X7316600D02*
D03*
Y6535400D02*
D03*
X7367400D02*
D03*
X7342000D02*
D03*
X7392800D02*
D03*
X7418200D02*
D03*
X7443600D02*
D03*
X7469000D02*
D03*
X7494400D02*
D03*
X7821550Y6510000D02*
D03*
X7796150D02*
D03*
X7770750D02*
D03*
X7745350D02*
D03*
X7719950D02*
D03*
X7694550D02*
D03*
X7669150D02*
D03*
X7643750D02*
D03*
Y6535400D02*
D03*
X7694550D02*
D03*
X7669150D02*
D03*
X7719950D02*
D03*
X7745350D02*
D03*
X7770750D02*
D03*
X7796150D02*
D03*
X7821550D02*
D03*
X8145200Y6232500D02*
D03*
X8119800D02*
D03*
X8094400D02*
D03*
X8069000D02*
D03*
X8043600D02*
D03*
X8018200D02*
D03*
X7992800D02*
D03*
X7967400D02*
D03*
Y6257900D02*
D03*
X8018200D02*
D03*
X7992800D02*
D03*
X8043600D02*
D03*
X8069000D02*
D03*
X8094400D02*
D03*
X8119800D02*
D03*
X8145200D02*
D03*
X7824550Y6232500D02*
D03*
X7799150D02*
D03*
X7773750D02*
D03*
X7748350D02*
D03*
X7722950D02*
D03*
X7697550D02*
D03*
X7672150D02*
D03*
X7646750D02*
D03*
Y6257900D02*
D03*
X7697550D02*
D03*
X7672150D02*
D03*
X7722950D02*
D03*
X7748350D02*
D03*
X7773750D02*
D03*
X7799150D02*
D03*
X7824550D02*
D03*
X8793000Y6232500D02*
D03*
X8767600D02*
D03*
X8742200D02*
D03*
X8716801D02*
D03*
X8691400D02*
D03*
X8666000D02*
D03*
X8640601D02*
D03*
X8615200D02*
D03*
Y6257900D02*
D03*
X8666000D02*
D03*
X8640601D02*
D03*
X8691400D02*
D03*
X8716801D02*
D03*
X8742200D02*
D03*
X8767600D02*
D03*
X8793000D02*
D03*
X8469100Y6232500D02*
D03*
X8443700D02*
D03*
X8418300D02*
D03*
X8392900D02*
D03*
X8367500D02*
D03*
X8342100D02*
D03*
X8316700D02*
D03*
X8291300D02*
D03*
Y6257900D02*
D03*
X8342100D02*
D03*
X8316700D02*
D03*
X8367500D02*
D03*
X8392900D02*
D03*
X8418300D02*
D03*
X8443700D02*
D03*
X8469100D02*
D03*
X7824550Y6982600D02*
D03*
X7799150D02*
D03*
X7773750D02*
D03*
X7748350D02*
D03*
X7722950D02*
D03*
X7697550D02*
D03*
X7672150D02*
D03*
X7646750D02*
D03*
Y7008000D02*
D03*
X7697550D02*
D03*
X7672150D02*
D03*
X7722950D02*
D03*
X7748350D02*
D03*
X7773750D02*
D03*
X7799150D02*
D03*
X7824550D02*
D03*
X8151700Y6982600D02*
D03*
X8126300D02*
D03*
X8100900D02*
D03*
X8075500D02*
D03*
X8050100D02*
D03*
X8024700D02*
D03*
X7999300D02*
D03*
X7973900D02*
D03*
Y7008000D02*
D03*
X8024700D02*
D03*
X7999300D02*
D03*
X8050100D02*
D03*
X8075500D02*
D03*
X8100900D02*
D03*
X8126300D02*
D03*
X8151700D02*
D03*
X8145200Y6817500D02*
D03*
X8119800D02*
D03*
X8094400D02*
D03*
X8069000D02*
D03*
X8043600D02*
D03*
X8018200D02*
D03*
X7992800D02*
D03*
X7967400D02*
D03*
Y6842900D02*
D03*
X8018200D02*
D03*
X7992800D02*
D03*
X8043600D02*
D03*
X8069000D02*
D03*
X8094400D02*
D03*
X8119800D02*
D03*
X8145200D02*
D03*
X7824550Y6817500D02*
D03*
X7799150D02*
D03*
X7773750D02*
D03*
X7748350D02*
D03*
X7722950D02*
D03*
X7697550D02*
D03*
X7672150D02*
D03*
X7646750D02*
D03*
Y6842900D02*
D03*
X7697550D02*
D03*
X7672150D02*
D03*
X7722950D02*
D03*
X7748350D02*
D03*
X7773750D02*
D03*
X7799150D02*
D03*
X7824550D02*
D03*
X7497400Y6817500D02*
D03*
X7472000D02*
D03*
X7446600D02*
D03*
X7421200D02*
D03*
X7395800D02*
D03*
X7370400D02*
D03*
X7345000D02*
D03*
X7319600D02*
D03*
Y6842900D02*
D03*
X7370400D02*
D03*
X7345000D02*
D03*
X7395800D02*
D03*
X7421200D02*
D03*
X7446600D02*
D03*
X7472000D02*
D03*
X7497400D02*
D03*
X6977000Y5382600D02*
D03*
Y5357200D02*
D03*
Y5331800D02*
D03*
Y5306400D02*
D03*
Y5281000D02*
D03*
D41*
X8224000Y6632000D02*
D03*
Y6607000D02*
D03*
Y6657000D02*
D03*
X7963000Y6643000D02*
D03*
Y6618000D02*
D03*
Y6668000D02*
D03*
X8227000Y5850000D02*
D03*
X8202000Y5800000D02*
D03*
X8252000D02*
D03*
X8227000Y5979000D02*
D03*
X8202000Y5929000D02*
D03*
X8252000D02*
D03*
D42*
X8299000Y6576000D02*
D03*
Y6688000D02*
D03*
D43*
X8038000Y6592000D02*
D03*
Y6694000D02*
D03*
D44*
X8362000Y5929000D02*
D03*
Y5594000D02*
D03*
X8872250Y5594500D02*
D03*
Y5929000D02*
D03*
D45*
X6248000Y7132000D02*
D03*
D46*
X6274000Y7160000D02*
D03*
X6225000D02*
D03*
D47*
X7824600Y5420000D02*
D03*
X7342000D02*
D03*
X7367400D02*
D03*
X7392800D02*
D03*
X7418200D02*
D03*
X7443600D02*
D03*
X7469000D02*
D03*
X7494400D02*
D03*
X7519800D02*
D03*
X7545200D02*
D03*
X7570600D02*
D03*
X7596000D02*
D03*
X7621400D02*
D03*
X7646800D02*
D03*
X7672200D02*
D03*
X7697600D02*
D03*
X7723000D02*
D03*
X7748400D02*
D03*
X7773800D02*
D03*
X7799200D02*
D03*
D48*
X7227000D02*
D03*
X8107000D02*
D03*
X7227000Y6070000D02*
D03*
X8107000D02*
D03*
D49*
X6332250Y7014000D02*
D03*
X8501000Y5273000D02*
D03*
Y5300000D02*
D03*
Y5327000D02*
D03*
X7513000Y7107000D02*
D03*
X7588428Y7145857D02*
D03*
X7645000Y7175000D02*
D03*
X7626143Y7165286D02*
D03*
X7607286Y7155571D02*
D03*
X7569572Y7136143D02*
D03*
X7550714Y7126429D02*
D03*
X7531857Y7116714D02*
D03*
X7709200Y7171200D02*
D03*
X7862000Y7174000D02*
D03*
X7878000Y7166000D02*
D03*
X6915750Y7123250D02*
D03*
X6662250Y5761000D02*
D03*
X6886000Y5589250D02*
D03*
X6935250Y5576250D02*
D03*
X7063000Y5648500D02*
D03*
X6809933Y5638933D02*
D03*
X6766700Y5579200D02*
D03*
X6690000Y5697750D02*
D03*
X6990000D02*
D03*
X6860000Y5580000D02*
D03*
X6754000Y5697750D02*
D03*
X6771750Y5633750D02*
D03*
X7061500Y5589000D02*
D03*
X6813250Y5725250D02*
D03*
X6830250Y5700500D02*
D03*
X6828000Y5725500D02*
D03*
X6840333Y5721917D02*
D03*
X6849000Y5698000D02*
D03*
X6861000Y5646750D02*
D03*
X6837000D02*
D03*
X6859750Y5760000D02*
D03*
X6807500Y5905500D02*
D03*
X6738579Y5723779D02*
D03*
X6752500Y5640500D02*
D03*
X6740250D02*
D03*
X6733578Y5704028D02*
D03*
X6728000Y5640500D02*
D03*
X6715750D02*
D03*
X6716500Y5704250D02*
D03*
X6176000Y6023000D02*
D03*
X8189000Y6852000D02*
D03*
X7044500Y6745000D02*
D03*
X7068000D02*
D03*
Y6768000D02*
D03*
X7044500D02*
D03*
X7020000D02*
D03*
Y6745000D02*
D03*
X7202250Y7086250D02*
D03*
X7901000Y6971000D02*
D03*
X7766000Y7120000D02*
D03*
X7443333Y7151000D02*
D03*
X7414000Y7176000D02*
D03*
X7404667Y7168333D02*
D03*
X7395333Y7160667D02*
D03*
X7386000Y7153000D02*
D03*
X7314000Y7141000D02*
D03*
X7304000Y7132000D02*
D03*
X7294000Y7123000D02*
D03*
X7285000Y7114000D02*
D03*
X7902000Y7154000D02*
D03*
X7163000Y7174000D02*
D03*
Y7190000D02*
D03*
X6465000Y5561000D02*
D03*
X7572900Y5649100D02*
D03*
X7584000Y5635000D02*
D03*
X8228000Y5551000D02*
D03*
Y5542000D02*
D03*
Y5533000D02*
D03*
Y5524000D02*
D03*
Y5509000D02*
D03*
Y5500000D02*
D03*
Y5491000D02*
D03*
X6939800Y6223800D02*
D03*
X7036000Y6510000D02*
D03*
X7836000Y7156000D02*
D03*
X7852500D02*
D03*
X7869000D02*
D03*
X7947000Y7140000D02*
D03*
X7819500Y7156000D02*
D03*
X7874000Y7188000D02*
D03*
X6243400Y6219400D02*
D03*
X7051000Y6510000D02*
D03*
X6992750Y5637000D02*
D03*
X6935000Y5713500D02*
D03*
X6979500Y5637000D02*
D03*
X6972750Y5700750D02*
D03*
X6980750Y5720500D02*
D03*
X6954750Y5581250D02*
D03*
X6967466Y5581967D02*
D03*
X7085750Y5637250D02*
D03*
X7086250Y5703750D02*
D03*
X7099500Y5704750D02*
D03*
X7091000Y5717500D02*
D03*
X7099000Y5634500D02*
D03*
X7109000Y5725500D02*
D03*
X7112500Y5641250D02*
D03*
X6961000Y5710500D02*
D03*
X6934750Y5725500D02*
D03*
X7923000Y6617000D02*
D03*
Y6634667D02*
D03*
Y6652333D02*
D03*
Y6670000D02*
D03*
X8709000Y6178000D02*
D03*
X8720000Y6170000D02*
D03*
X8120000Y5315000D02*
D03*
Y5260000D02*
D03*
Y5195000D02*
D03*
X8305000Y5315000D02*
D03*
Y5260000D02*
D03*
Y5195000D02*
D03*
X8135000Y6902500D02*
D03*
X8137500Y6890000D02*
D03*
D54*
X6393000Y6128000D02*
D03*
X6372750D02*
D03*
X6320000Y6984000D02*
D03*
X6299750D02*
D03*
X6320000Y6965000D02*
D03*
X6299750D02*
D03*
X6959750Y6966000D02*
D03*
X6950500Y6978750D02*
D03*
X6907500Y5747000D02*
D03*
X7025750Y5554250D02*
D03*
X6822750Y5589000D02*
D03*
X6922500Y5697750D02*
D03*
X7125250Y5589000D02*
D03*
X6863000Y5631500D02*
D03*
X7900000Y7225000D02*
D03*
X7766000Y7156000D02*
D03*
Y7138000D02*
D03*
X7475000Y7130000D02*
D03*
X7464445Y7137000D02*
D03*
X7453889Y7144000D02*
D03*
X7803000Y7156000D02*
D03*
X7226500Y7224000D02*
D03*
X7290000D02*
D03*
X7379000Y7224600D02*
D03*
X7442500D02*
D03*
X7620300D02*
D03*
X7645700D02*
D03*
X7925100D02*
D03*
X6280000Y6128000D02*
D03*
X6938000Y6993000D02*
D03*
Y6979000D02*
D03*
X6230000Y6000000D02*
D03*
X6216000D02*
D03*
X6376000Y6203250D02*
D03*
X6273000Y5957000D02*
D03*
Y5830000D02*
D03*
Y5722000D02*
D03*
X6383000Y6120000D02*
D03*
X6466000Y5678000D02*
D03*
Y5657000D02*
D03*
X6446000Y5678000D02*
D03*
Y5657000D02*
D03*
X7901000Y6067000D02*
D03*
X7918000D02*
D03*
X7901000Y6082000D02*
D03*
X7918000D02*
D03*
D55*
X8259000Y6180000D02*
D03*
X8244858Y6165858D02*
D03*
X7944000Y6178000D02*
D03*
X7929858Y6163858D02*
D03*
M02*
