G04 Layer_Color=16711935*
%FSLAX44Y44*%
%MOMM*%
G71*
G01*
G75*
%ADD61R,1.6700X1.6700*%
%ADD62R,0.8500X1.4000*%
%ADD64R,1.6700X1.6700*%
%ADD79R,0.9000X5.1800*%
%ADD86C,1.6700*%
%ADD87R,1.9000X1.9000*%
%ADD88C,1.9000*%
%ADD89C,3.7000*%
%ADD90C,1.9240*%
%ADD91C,1.7000*%
%ADD92R,2.9000X2.9000*%
%ADD93R,1.9000X2.5000*%
%ADD94C,2.9000*%
%ADD95O,1.9000X1.4000*%
%ADD96O,1.4000X1.9000*%
%ADD97C,1.3700*%
%ADD98R,2.2000X3.1500*%
%ADD99C,5.4000*%
%ADD100C,1.1000*%
%ADD101P,2.3617X4X90.0*%
%ADD102C,0.9000*%
D61*
X7317750Y6655000D02*
D03*
Y6635000D02*
D03*
D62*
X7078000Y5893000D02*
D03*
X7069000D02*
D03*
X7060000D02*
D03*
X7051000D02*
D03*
X7078000Y5910000D02*
D03*
X7069000D02*
D03*
X7060000D02*
D03*
X7051000D02*
D03*
X6705750D02*
D03*
X6714750D02*
D03*
X6723750D02*
D03*
X6732750D02*
D03*
X6705750Y5893000D02*
D03*
X6714750D02*
D03*
X6723750D02*
D03*
X6732750D02*
D03*
X6963250D02*
D03*
X6954250D02*
D03*
X6945250D02*
D03*
X6936250D02*
D03*
X6963250Y5910000D02*
D03*
X6954250D02*
D03*
X6945250D02*
D03*
X6936250D02*
D03*
X6821000D02*
D03*
X6830000D02*
D03*
X6839000D02*
D03*
X6848000D02*
D03*
X6821000Y5893000D02*
D03*
X6830000D02*
D03*
X6839000D02*
D03*
X6848000D02*
D03*
D64*
X8528000Y6346000D02*
D03*
X8508000D02*
D03*
X6290000Y5958000D02*
D03*
X6310000D02*
D03*
X6290000Y5830000D02*
D03*
X6310000D02*
D03*
X6290000Y5721500D02*
D03*
X6310000D02*
D03*
X7279000Y6202000D02*
D03*
X7259000D02*
D03*
X7606000D02*
D03*
X7586000D02*
D03*
X7039000Y6963000D02*
D03*
X7059000D02*
D03*
X7052250Y6880000D02*
D03*
X7072250D02*
D03*
X6280000Y6128000D02*
D03*
X6260000D02*
D03*
D79*
X7163000Y7224000D02*
D03*
X7175700D02*
D03*
X7188400D02*
D03*
X7201100D02*
D03*
X7213800D02*
D03*
X7226500D02*
D03*
X7239200D02*
D03*
X7251900D02*
D03*
X7264600D02*
D03*
X7277300D02*
D03*
X7290000D02*
D03*
X7328200Y7224600D02*
D03*
X7340900D02*
D03*
X7353600D02*
D03*
X7366300D02*
D03*
X7379000D02*
D03*
X7391700D02*
D03*
X7404400D02*
D03*
X7417100D02*
D03*
X7429800D02*
D03*
X7442500D02*
D03*
X7455200D02*
D03*
X7467900D02*
D03*
X7480600D02*
D03*
X7493300D02*
D03*
X7506000D02*
D03*
X7518700D02*
D03*
X7531400D02*
D03*
X7544100D02*
D03*
X7556800D02*
D03*
X7569500D02*
D03*
X7582200D02*
D03*
X7594900D02*
D03*
X7607600D02*
D03*
X7620300D02*
D03*
X7633000D02*
D03*
X7645700D02*
D03*
X7658400D02*
D03*
X7671100D02*
D03*
X7683800D02*
D03*
X7696500D02*
D03*
X7709200D02*
D03*
X7721900D02*
D03*
X7734600D02*
D03*
X7747300D02*
D03*
X7760000D02*
D03*
X7772700D02*
D03*
X7785400D02*
D03*
X7810800D02*
D03*
X7823500D02*
D03*
X7836200D02*
D03*
X7848900D02*
D03*
X7861600D02*
D03*
X7874300D02*
D03*
X7887000D02*
D03*
X7899700D02*
D03*
X7912400D02*
D03*
X7925100D02*
D03*
X7937800D02*
D03*
X7798000D02*
D03*
D86*
X8351500Y7091500D02*
D03*
X8326100D02*
D03*
X8300700D02*
D03*
X8275300D02*
D03*
X8693200Y5381000D02*
D03*
X8667800D02*
D03*
X8642400D02*
D03*
X8617000D02*
D03*
X8591600D02*
D03*
X8566200D02*
D03*
X8540800D02*
D03*
X6402000Y5933000D02*
D03*
X6348000D02*
D03*
X6402000Y5958000D02*
D03*
Y5908000D02*
D03*
X6348000D02*
D03*
Y5958000D02*
D03*
X6402000Y5805000D02*
D03*
X6348000D02*
D03*
X6402000Y5830000D02*
D03*
Y5780000D02*
D03*
X6348000D02*
D03*
Y5830000D02*
D03*
X6401800Y5696600D02*
D03*
X6347800D02*
D03*
X6401800Y5721600D02*
D03*
Y5671600D02*
D03*
X6347800D02*
D03*
Y5721600D02*
D03*
X6504900Y5752000D02*
D03*
Y5777400D02*
D03*
Y5802800D02*
D03*
Y5828200D02*
D03*
Y5853600D02*
D03*
Y5879000D02*
D03*
Y5904400D02*
D03*
Y5929800D02*
D03*
X6581100D02*
D03*
Y5904400D02*
D03*
Y5879000D02*
D03*
Y5853600D02*
D03*
Y5828200D02*
D03*
Y5802800D02*
D03*
Y5777400D02*
D03*
Y5752000D02*
D03*
X6899700Y7169750D02*
D03*
X6874300D02*
D03*
X6848900D02*
D03*
X6823500D02*
D03*
X6742800D02*
D03*
X6717400D02*
D03*
X6692000D02*
D03*
X6666600D02*
D03*
X6683000Y5804000D02*
D03*
X6708400D02*
D03*
X6733800D02*
D03*
X6759200D02*
D03*
X6784600D02*
D03*
X6810000D02*
D03*
X6835400D02*
D03*
X6860800D02*
D03*
X6886200D02*
D03*
X6911600D02*
D03*
X6937000D02*
D03*
X6962400D02*
D03*
X6987800D02*
D03*
X7013200D02*
D03*
X7038600D02*
D03*
X7064000D02*
D03*
X7089400D02*
D03*
X7114800D02*
D03*
Y5956400D02*
D03*
X7089400D02*
D03*
X7064000D02*
D03*
X7038600D02*
D03*
X7013200D02*
D03*
X6987800D02*
D03*
X6962400D02*
D03*
X6937000D02*
D03*
X6911600D02*
D03*
X6886200D02*
D03*
X6860800D02*
D03*
X6835400D02*
D03*
X6810000D02*
D03*
X6784600D02*
D03*
X6759200D02*
D03*
X6733800D02*
D03*
X6708400D02*
D03*
X6683000D02*
D03*
X6228600Y7055400D02*
D03*
X6254000D02*
D03*
X6279400D02*
D03*
X6330200D02*
D03*
X6355600D02*
D03*
X6381000D02*
D03*
X6406400D02*
D03*
X6431800D02*
D03*
X6457200D02*
D03*
X6482600D02*
D03*
X6508000D02*
D03*
X6533400D02*
D03*
X6558800D02*
D03*
X6584200D02*
D03*
X6609600D02*
D03*
X6635000D02*
D03*
X6660400D02*
D03*
X6685800D02*
D03*
X6711200D02*
D03*
X6736600D02*
D03*
X6762000D02*
D03*
X6787400D02*
D03*
X6812800D02*
D03*
X6838200D02*
D03*
X6863600D02*
D03*
X6889000D02*
D03*
X6914400D02*
D03*
X6939800D02*
D03*
X7041350D02*
D03*
X7066550D02*
D03*
X7091850D02*
D03*
X7117350D02*
D03*
Y7030000D02*
D03*
X7091850D02*
D03*
X7066550D02*
D03*
X7041350D02*
D03*
X6939800D02*
D03*
X6914400D02*
D03*
X6889000D02*
D03*
X6863600D02*
D03*
X6838200D02*
D03*
X6812800D02*
D03*
X6787400D02*
D03*
X6762000D02*
D03*
X6736600D02*
D03*
X6711200D02*
D03*
X6685800D02*
D03*
X6660400D02*
D03*
X6635000D02*
D03*
X6609600D02*
D03*
X6584200D02*
D03*
X6558800D02*
D03*
X6533400D02*
D03*
X6508000D02*
D03*
X6482600D02*
D03*
X6457200D02*
D03*
X6431800D02*
D03*
X6406400D02*
D03*
X6381000D02*
D03*
X6355600D02*
D03*
X6330200D02*
D03*
X6279400D02*
D03*
X6254000D02*
D03*
X6228600D02*
D03*
X6228500Y6090150D02*
D03*
X6253900D02*
D03*
X6279300D02*
D03*
X6330100D02*
D03*
X6355500D02*
D03*
X6380900D02*
D03*
X6406300D02*
D03*
X6431700D02*
D03*
X6457100D02*
D03*
X6482500D02*
D03*
X6507900D02*
D03*
X6533300D02*
D03*
X6558700D02*
D03*
X6584100D02*
D03*
X6609500D02*
D03*
X6634900D02*
D03*
X6660300D02*
D03*
X6685700D02*
D03*
X6711100D02*
D03*
X6736500D02*
D03*
X6761900D02*
D03*
X6787300D02*
D03*
X6812700D02*
D03*
X6838100D02*
D03*
X6863500D02*
D03*
X6888900D02*
D03*
X6914300D02*
D03*
X6939700D02*
D03*
X7041250D02*
D03*
X7066450D02*
D03*
X7091750D02*
D03*
X7117250D02*
D03*
Y6064750D02*
D03*
X7091750D02*
D03*
X7066450D02*
D03*
X7041250D02*
D03*
X6939700D02*
D03*
X6914300D02*
D03*
X6888900D02*
D03*
X6863500D02*
D03*
X6838100D02*
D03*
X6812700D02*
D03*
X6787300D02*
D03*
X6761900D02*
D03*
X6736500D02*
D03*
X6711100D02*
D03*
X6685700D02*
D03*
X6660300D02*
D03*
X6634900D02*
D03*
X6609500D02*
D03*
X6584100D02*
D03*
X6558700D02*
D03*
X6533300D02*
D03*
X6507900D02*
D03*
X6482500D02*
D03*
X6457100D02*
D03*
X6431700D02*
D03*
X6406300D02*
D03*
X6380900D02*
D03*
X6355500D02*
D03*
X6330100D02*
D03*
X6279300D02*
D03*
X6253900D02*
D03*
X6228500D02*
D03*
X8275000Y7065000D02*
D03*
X8300400D02*
D03*
X8325800D02*
D03*
X8351200D02*
D03*
Y7037500D02*
D03*
X8325800D02*
D03*
X8300400D02*
D03*
X8275000D02*
D03*
Y7010000D02*
D03*
X8300400D02*
D03*
X8325800D02*
D03*
X8351200D02*
D03*
D87*
X8608000Y6598000D02*
D03*
Y6776000D02*
D03*
D88*
Y6623000D02*
D03*
Y6801000D02*
D03*
D89*
X8659000Y6649000D02*
D03*
Y6547000D02*
D03*
Y6827000D02*
D03*
Y6725000D02*
D03*
D90*
X8536000Y6716000D02*
D03*
Y6741400D02*
D03*
X7497400Y6232500D02*
D03*
X7472000D02*
D03*
X7446600D02*
D03*
X7421200D02*
D03*
X7395800D02*
D03*
X7370400D02*
D03*
X7345000D02*
D03*
X7319600D02*
D03*
Y6257900D02*
D03*
X7370400D02*
D03*
X7345000D02*
D03*
X7395800D02*
D03*
X7421200D02*
D03*
X7446600D02*
D03*
X7472000D02*
D03*
X7497400D02*
D03*
X7494400Y6510000D02*
D03*
X7469000D02*
D03*
X7443600D02*
D03*
X7418200D02*
D03*
X7392800D02*
D03*
X7367400D02*
D03*
X7342000D02*
D03*
X7316600D02*
D03*
Y6535400D02*
D03*
X7367400D02*
D03*
X7342000D02*
D03*
X7392800D02*
D03*
X7418200D02*
D03*
X7443600D02*
D03*
X7469000D02*
D03*
X7494400D02*
D03*
X7821550Y6510000D02*
D03*
X7796150D02*
D03*
X7770750D02*
D03*
X7745350D02*
D03*
X7719950D02*
D03*
X7694550D02*
D03*
X7669150D02*
D03*
X7643750D02*
D03*
Y6535400D02*
D03*
X7694550D02*
D03*
X7669150D02*
D03*
X7719950D02*
D03*
X7745350D02*
D03*
X7770750D02*
D03*
X7796150D02*
D03*
X7821550D02*
D03*
X8145200Y6232500D02*
D03*
X8119800D02*
D03*
X8094400D02*
D03*
X8069000D02*
D03*
X8043600D02*
D03*
X8018200D02*
D03*
X7992800D02*
D03*
X7967400D02*
D03*
Y6257900D02*
D03*
X8018200D02*
D03*
X7992800D02*
D03*
X8043600D02*
D03*
X8069000D02*
D03*
X8094400D02*
D03*
X8119800D02*
D03*
X8145200D02*
D03*
X7824550Y6232500D02*
D03*
X7799150D02*
D03*
X7773750D02*
D03*
X7748350D02*
D03*
X7722950D02*
D03*
X7697550D02*
D03*
X7672150D02*
D03*
X7646750D02*
D03*
Y6257900D02*
D03*
X7697550D02*
D03*
X7672150D02*
D03*
X7722950D02*
D03*
X7748350D02*
D03*
X7773750D02*
D03*
X7799150D02*
D03*
X7824550D02*
D03*
X8793000Y6232500D02*
D03*
X8767600D02*
D03*
X8742200D02*
D03*
X8716801D02*
D03*
X8691400D02*
D03*
X8666000D02*
D03*
X8640601D02*
D03*
X8615200D02*
D03*
Y6257900D02*
D03*
X8666000D02*
D03*
X8640601D02*
D03*
X8691400D02*
D03*
X8716801D02*
D03*
X8742200D02*
D03*
X8767600D02*
D03*
X8793000D02*
D03*
X8469100Y6232500D02*
D03*
X8443700D02*
D03*
X8418300D02*
D03*
X8392900D02*
D03*
X8367500D02*
D03*
X8342100D02*
D03*
X8316700D02*
D03*
X8291300D02*
D03*
Y6257900D02*
D03*
X8342100D02*
D03*
X8316700D02*
D03*
X8367500D02*
D03*
X8392900D02*
D03*
X8418300D02*
D03*
X8443700D02*
D03*
X8469100D02*
D03*
X7824550Y6982600D02*
D03*
X7799150D02*
D03*
X7773750D02*
D03*
X7748350D02*
D03*
X7722950D02*
D03*
X7697550D02*
D03*
X7672150D02*
D03*
X7646750D02*
D03*
Y7008000D02*
D03*
X7697550D02*
D03*
X7672150D02*
D03*
X7722950D02*
D03*
X7748350D02*
D03*
X7773750D02*
D03*
X7799150D02*
D03*
X7824550D02*
D03*
X8151700Y6982600D02*
D03*
X8126300D02*
D03*
X8100900D02*
D03*
X8075500D02*
D03*
X8050100D02*
D03*
X8024700D02*
D03*
X7999300D02*
D03*
X7973900D02*
D03*
Y7008000D02*
D03*
X8024700D02*
D03*
X7999300D02*
D03*
X8050100D02*
D03*
X8075500D02*
D03*
X8100900D02*
D03*
X8126300D02*
D03*
X8151700D02*
D03*
X8145200Y6817500D02*
D03*
X8119800D02*
D03*
X8094400D02*
D03*
X8069000D02*
D03*
X8043600D02*
D03*
X8018200D02*
D03*
X7992800D02*
D03*
X7967400D02*
D03*
Y6842900D02*
D03*
X8018200D02*
D03*
X7992800D02*
D03*
X8043600D02*
D03*
X8069000D02*
D03*
X8094400D02*
D03*
X8119800D02*
D03*
X8145200D02*
D03*
X7824550Y6817500D02*
D03*
X7799150D02*
D03*
X7773750D02*
D03*
X7748350D02*
D03*
X7722950D02*
D03*
X7697550D02*
D03*
X7672150D02*
D03*
X7646750D02*
D03*
Y6842900D02*
D03*
X7697550D02*
D03*
X7672150D02*
D03*
X7722950D02*
D03*
X7748350D02*
D03*
X7773750D02*
D03*
X7799150D02*
D03*
X7824550D02*
D03*
X7497400Y6817500D02*
D03*
X7472000D02*
D03*
X7446600D02*
D03*
X7421200D02*
D03*
X7395800D02*
D03*
X7370400D02*
D03*
X7345000D02*
D03*
X7319600D02*
D03*
Y6842900D02*
D03*
X7370400D02*
D03*
X7345000D02*
D03*
X7395800D02*
D03*
X7421200D02*
D03*
X7446600D02*
D03*
X7472000D02*
D03*
X7497400D02*
D03*
X6977000Y5382600D02*
D03*
Y5357200D02*
D03*
Y5331800D02*
D03*
Y5306400D02*
D03*
Y5281000D02*
D03*
D91*
X8224000Y6632000D02*
D03*
Y6607000D02*
D03*
Y6657000D02*
D03*
X7963000Y6643000D02*
D03*
Y6618000D02*
D03*
Y6668000D02*
D03*
X8227000Y5850000D02*
D03*
X8202000Y5800000D02*
D03*
X8252000D02*
D03*
X8227000Y5979000D02*
D03*
X8202000Y5929000D02*
D03*
X8252000D02*
D03*
D92*
X8299000Y6576000D02*
D03*
Y6688000D02*
D03*
D93*
X8038000Y6592000D02*
D03*
Y6694000D02*
D03*
D94*
X8362000Y5929000D02*
D03*
Y5594000D02*
D03*
X8872250Y5594500D02*
D03*
Y5929000D02*
D03*
D95*
X6248000Y7132000D02*
D03*
D96*
X6274000Y7160000D02*
D03*
X6225000D02*
D03*
D97*
X7075000Y6925250D02*
D03*
X7049600D02*
D03*
X7024200D02*
D03*
X6343700Y5480300D02*
D03*
X6243700D02*
D03*
X6507000Y7145600D02*
D03*
Y7171000D02*
D03*
Y7196400D02*
D03*
D98*
X7824600Y5420000D02*
D03*
X7342000D02*
D03*
X7367400D02*
D03*
X7392800D02*
D03*
X7418200D02*
D03*
X7443600D02*
D03*
X7469000D02*
D03*
X7494400D02*
D03*
X7519800D02*
D03*
X7545200D02*
D03*
X7570600D02*
D03*
X7596000D02*
D03*
X7621400D02*
D03*
X7646800D02*
D03*
X7672200D02*
D03*
X7697600D02*
D03*
X7723000D02*
D03*
X7748400D02*
D03*
X7773800D02*
D03*
X7799200D02*
D03*
D99*
X7227000D02*
D03*
X8107000D02*
D03*
X7227000Y6070000D02*
D03*
X8107000D02*
D03*
D100*
X6332250Y7014000D02*
D03*
X8501000Y5273000D02*
D03*
Y5300000D02*
D03*
Y5327000D02*
D03*
X7513000Y7107000D02*
D03*
X7588428Y7145857D02*
D03*
X7645000Y7175000D02*
D03*
X7626143Y7165286D02*
D03*
X7607286Y7155571D02*
D03*
X7569572Y7136143D02*
D03*
X7550714Y7126429D02*
D03*
X7531857Y7116714D02*
D03*
X7709200Y7171200D02*
D03*
X7862000Y7174000D02*
D03*
X7878000Y7166000D02*
D03*
X6915750Y7123250D02*
D03*
X6662250Y5761000D02*
D03*
X6886000Y5589250D02*
D03*
X6935250Y5576250D02*
D03*
X7063000Y5648500D02*
D03*
X6809933Y5638933D02*
D03*
X6766700Y5579200D02*
D03*
X6690000Y5697750D02*
D03*
X6990000D02*
D03*
X6860000Y5580000D02*
D03*
X6754000Y5697750D02*
D03*
X6771750Y5633750D02*
D03*
X7061500Y5589000D02*
D03*
X6813250Y5725250D02*
D03*
X6830250Y5700500D02*
D03*
X6828000Y5725500D02*
D03*
X6840333Y5721917D02*
D03*
X6849000Y5698000D02*
D03*
X6861000Y5646750D02*
D03*
X6837000D02*
D03*
X6859750Y5760000D02*
D03*
X6807500Y5905500D02*
D03*
X6738579Y5723779D02*
D03*
X6752500Y5640500D02*
D03*
X6740250D02*
D03*
X6733578Y5704028D02*
D03*
X6728000Y5640500D02*
D03*
X6715750D02*
D03*
X6716500Y5704250D02*
D03*
X6176000Y6023000D02*
D03*
X8189000Y6852000D02*
D03*
X7044500Y6745000D02*
D03*
X7068000D02*
D03*
Y6768000D02*
D03*
X7044500D02*
D03*
X7020000D02*
D03*
Y6745000D02*
D03*
X7202250Y7086250D02*
D03*
X7901000Y6971000D02*
D03*
X7766000Y7120000D02*
D03*
X7443333Y7151000D02*
D03*
X7414000Y7176000D02*
D03*
X7404667Y7168333D02*
D03*
X7395333Y7160667D02*
D03*
X7386000Y7153000D02*
D03*
X7314000Y7141000D02*
D03*
X7304000Y7132000D02*
D03*
X7294000Y7123000D02*
D03*
X7285000Y7114000D02*
D03*
X7902000Y7154000D02*
D03*
X7163000Y7174000D02*
D03*
Y7190000D02*
D03*
X6465000Y5561000D02*
D03*
X7572900Y5649100D02*
D03*
X7584000Y5635000D02*
D03*
X8228000Y5551000D02*
D03*
Y5542000D02*
D03*
Y5533000D02*
D03*
Y5524000D02*
D03*
Y5509000D02*
D03*
Y5500000D02*
D03*
Y5491000D02*
D03*
X6939800Y6223800D02*
D03*
X7036000Y6510000D02*
D03*
X7836000Y7156000D02*
D03*
X7852500D02*
D03*
X7869000D02*
D03*
X7947000Y7140000D02*
D03*
X7819500Y7156000D02*
D03*
X7874000Y7188000D02*
D03*
X6243400Y6219400D02*
D03*
X7051000Y6510000D02*
D03*
X6992750Y5637000D02*
D03*
X6935000Y5713500D02*
D03*
X6979500Y5637000D02*
D03*
X6972750Y5700750D02*
D03*
X6980750Y5720500D02*
D03*
X6954750Y5581250D02*
D03*
X6967466Y5581967D02*
D03*
X7085750Y5637250D02*
D03*
X7086250Y5703750D02*
D03*
X7099500Y5704750D02*
D03*
X7091000Y5717500D02*
D03*
X7099000Y5634500D02*
D03*
X7109000Y5725500D02*
D03*
X7112500Y5641250D02*
D03*
X6961000Y5710500D02*
D03*
X6934750Y5725500D02*
D03*
X7923000Y6617000D02*
D03*
Y6634667D02*
D03*
Y6652333D02*
D03*
Y6670000D02*
D03*
X8709000Y6178000D02*
D03*
X8720000Y6170000D02*
D03*
X8120000Y5315000D02*
D03*
Y5260000D02*
D03*
Y5195000D02*
D03*
X8305000Y5315000D02*
D03*
Y5260000D02*
D03*
Y5195000D02*
D03*
X8135000Y6902500D02*
D03*
X8137500Y6890000D02*
D03*
D101*
X8259000Y6180000D02*
D03*
X8244858Y6165858D02*
D03*
X7944000Y6178000D02*
D03*
X7929858Y6163858D02*
D03*
D102*
X6393000Y6128000D02*
D03*
X6372750D02*
D03*
X6320000Y6984000D02*
D03*
X6299750D02*
D03*
X6320000Y6965000D02*
D03*
X6299750D02*
D03*
X6959750Y6966000D02*
D03*
X6950500Y6978750D02*
D03*
X6907500Y5747000D02*
D03*
X7025750Y5554250D02*
D03*
X6822750Y5589000D02*
D03*
X6922500Y5697750D02*
D03*
X7125250Y5589000D02*
D03*
X6863000Y5631500D02*
D03*
X7900000Y7225000D02*
D03*
X7766000Y7156000D02*
D03*
Y7138000D02*
D03*
X7475000Y7130000D02*
D03*
X7464445Y7137000D02*
D03*
X7453889Y7144000D02*
D03*
X7803000Y7156000D02*
D03*
X7226500Y7224000D02*
D03*
X7290000D02*
D03*
X7379000Y7224600D02*
D03*
X7442500D02*
D03*
X7620300D02*
D03*
X7645700D02*
D03*
X7925100D02*
D03*
X6280000Y6128000D02*
D03*
X6938000Y6993000D02*
D03*
Y6979000D02*
D03*
X6230000Y6000000D02*
D03*
X6216000D02*
D03*
X6376000Y6203250D02*
D03*
X6273000Y5957000D02*
D03*
Y5830000D02*
D03*
Y5722000D02*
D03*
X6383000Y6120000D02*
D03*
X6466000Y5678000D02*
D03*
Y5657000D02*
D03*
X6446000Y5678000D02*
D03*
Y5657000D02*
D03*
X7901000Y6067000D02*
D03*
X7918000D02*
D03*
X7901000Y6082000D02*
D03*
X7918000D02*
D03*
M02*
