M48
;Layer_Color=9474304
;FILE_FORMAT=4:4
METRIC,LZ
;TYPE=PLATED
T1F00S00C0.4000
T2F00S00C0.4000
T3F00S00C0.4000
T4F00S00C0.6000
T5F00S00C0.6500
T6F00S00C0.7620
T7F00S00C0.9000
T8F00S00C1.0000
T9F00S00C1.0000
T11F00S00C2.0000
T13F00S00C2.5000
;TYPE=NON_PLATED
T14F00S00C2.5000
%
T01
X06466Y05678
X06446
Y05657
X06466
X06863Y056315
X0682275Y05589
X069225Y0569775
X0702575Y0555425
X0712525Y05589
X07901Y06067
Y06082
X07918
Y06067
X069075Y05747
X06273Y05722
Y0583
Y05957
X0623Y06
X06216
X0628Y06128
X0637275
X06383Y0612
X06393Y06128
X06376Y0620325
X0632Y06965
Y06984
X0629975
Y06965
X06938Y06979
X069505Y0697875
X0695975Y06966
X06938Y06993
X072265Y07224
X0729
X07379Y072246
X074425
X07453889Y07144
X07464445Y07137
X07475Y0713
X076203Y072246
X076457
X07766Y07156
Y07138
X07803Y07156
X079Y07225
X079251Y072246
T02
X06465Y05561
X07584Y05635
X075729Y056491
X08228Y05551
Y05542
Y05533
Y05524
Y05509
Y055
Y05491
T03
X08501Y053
Y05273
X08305Y0526
Y05195
X0812
Y0526
X06886Y0558925
X0686Y0558
X06861Y0564675
X06837
X06809933Y05638933
X0677175Y0563375
X067525Y056405
X0674025
X06728
X0671575
X067165Y0570425
X06733578Y05704028
X06754Y0569775
X0669
X0683025Y057005
X06849Y05698
X067667Y055792
X0693525Y0557625
X0695475Y0558125
X06967466Y05581967
X069795Y05637
X0699275
X0699Y0569775
X0697275Y0570075
X0708625Y0570375
X070995Y0570475
X07099Y056345
X0708575Y0563725
X071125Y0564125
X07063Y056485
X070615Y05589
X0812Y05315
X08305
X08501Y05327
X07109Y057255
X07091Y057175
X0698075Y057205
X06961Y057105
X06935Y057135
X0693475Y057255
X06840333Y05721917
X06828Y057255
X0681325Y0572525
X06738579Y05723779
X0666225Y05761
X0685975Y0576
X068075Y059055
X06176Y06023
X062434Y062194
X069398Y062238
X08709Y06178
X0872Y0617
X08189Y06852
X081375Y0689
X07923Y0667
Y06652333
Y06634667
Y06617
X07051Y0651
X07036
X070445Y06745
Y06768
X07068
Y06745
X0702
Y06768
X0633225Y07014
X0691575Y0712325
X07163Y07174
Y0719
X0720225Y0708625
X07285Y07114
X07294Y07123
X07304Y07132
X07314Y07141
X07386Y07153
X07395333Y07160667
X07404667Y07168333
X07414Y07176
X07443333Y07151
X07513Y07107
X07531857Y07116714
X07550714Y07126429
X07569572Y07136143
X07588428Y07145857
X07607286Y07155571
X07626143Y07165286
X07645Y07175
X077092Y071712
X07766Y0712
X078195Y07156
X07836
X078525
X07869
X07878Y07166
X07862Y07174
X07874Y07188
X07902Y07154
X07947Y0714
X07901Y06971
X08135Y069025
T04
X064018Y056966
Y056716
X063478
Y056966
X069116Y05804
X06937
X069624
X069878
X070132
X070386
X07064
X070894
X071148
Y059564
X070894
X07064
X070386
X070132
X069878
X069624
X06937
X069116
X068862
X068608
X068354
X0681
X067846
X067592
X067338
X067084
X06683
Y05804
X067084
X067338
X067592
X067846
X0681
X068354
X068608
X068862
X06402Y05805
Y0583
Y0578
X06348
Y05805
Y0583
X06348Y05908
Y05933
Y05958
X06402
Y05933
Y05908
X064018Y057216
X063478
T05
X065811Y059298
Y059044
Y05879
Y058536
Y058282
Y058028
Y057774
Y05752
X065049
Y057774
Y058028
Y058282
Y058536
Y05879
Y059044
Y059298
T06
X0767215Y062579
Y062325
X0764675
Y062579
X074974
Y062325
X07472
X074466
X074212
X073958
X073704
X07345
X073196
Y062579
X07345
X073704
X073958
X074212
X074466
X07472
X0769755
Y062325
X0772295
X0774835
X0777375
X0779915
X0782455
Y062579
X0779915
X0777375
X0774835
X0772295
X079674
Y062325
X079928
X080182
X080436
X08069
Y062579
X080436
X080182
X079928
X080944
Y062325
X081198
X081452
Y062579
X081198
X082913
Y062325
X083167
X083421
X083675
X083929
X084183
X084437
X084691
Y062579
X084437
X084183
X083929
X083675
X083421
X083167
X086152
Y062325
X08640601
X08666
X086914
X08716801
X087422
X087676
X08793
Y062579
X087676
X087422
X08716801
X086914
X08666
X08640601
X08536Y06716
Y067414
X081452Y068175
X081198
X080944
Y068429
X081198
X081452
X08069
Y068175
X080436
X080182
X079928
X079674
Y068429
X079928
X080182
X080436
X0782455
Y068175
X0779915
X0777375
X0774835
X0772295
X0769755
Y068429
X0772295
X0774835
X0777375
X0779915
X0779615Y065354
Y0651
X0782155
Y065354
X0777075
Y0651
X0774535
X0771995
X0769455
Y065354
X0771995
X0774535
X0766915
Y0651
X0764375
Y065354
X074944
Y0651
X07469
X074436
X074182
X073928
X073674
X07342
X073166
Y065354
X07342
X073674
X073928
X074182
X074436
X07469
X07472Y068175
X074974
Y068429
X07472
X074466
Y068175
X074212
X073958
X073704
X07345
X073196
Y068429
X07345
X073704
X073958
X074212
X0764675
Y068175
X0767215
Y068429
Y069826
X0764675
Y07008
X0767215
X0769755
Y069826
X0772295
X0774835
X0777375
X0779915
X0782455
Y07008
X0779915
X0777375
X0774835
X0772295
X079739
Y069826
X079993
X080247
X080501
X080755
Y07008
X080501
X080247
X079993
X081009
Y069826
X081263
X081517
Y07008
X081263
T07
X08608Y06801
Y06776
Y06623
Y06598
T08
X08227Y05979
X08202Y05929
X08252
X08227Y0585
X08202Y058
X08252
X08224Y06607
Y06632
Y06657
X07963Y06668
Y06643
Y06618
T09
X06977Y053064
Y05281
X063437Y054803
X062437
X06977Y053826
Y053572
Y053318
X07342Y0542
X073674
X073928
X074182
X074436
X07469
X074944
X075198
X075452
X075706
X07596
X076214
X076468
X076722
X076976
X07723
X077484
X077738
X077992
X078246
X085408Y05381
X085662
X085916
X08617
X086424
X086678
X086932
X0711725Y0606475
Y0609015
X0709175
X0706645
X0704125
Y0606475
X0706645
X0709175
X069397
Y0609015
X069143
Y0606475
X068889
Y0609015
X068635
X068381
X068127
X067873
X067619
X067365
X067111
X066857
X066603
X066349
X066095
X065841
X065587
X065333
X065079
Y0606475
X065333
X065587
X065841
X066095
X066349
X066603
X066857
X067111
X067365
X067619
X067873
X068127
X068381
X068635
X064825
Y0609015
X064571
X064317
X064063
X063809
X063555
X063301
Y0606475
X063555
X063809
X064063
X064317
X064571
X062793
Y0609015
X062539
X062285
Y0606475
X062539
X06254Y0703
Y070554
X062286
Y0703
X062794
Y070554
X063302
X063556
X06381
X064064
X064318
X064572
X064826
Y0703
X064572
X064318
X064064
X06381
X063556
X063302
X06248Y07132
X06225Y0716
X06274
X06507Y07171
Y071456
Y071964
X06508Y070554
X065334
X065588
X065842
X066096
X06635
X066604
X066858
X067112
X067366
X06762
X067874
X068128
X068382
X068636
X06889
Y0703
X068636
X068382
X068128
X067874
X06762
X067366
X067112
X066858
X066604
X06635
X066096
X065842
X065588
X065334
X06508
X066666Y0716975
X06692
X067174
X067428
X068235
X068489
X068743
X068997
X069144Y070554
X069398
Y0703
X069144
X0704135
X0706655
X0709185
Y070554
X0706655
X0704135
X0711735
Y0703
X07075Y0692525
X070496
X070242
X08275Y0701
X083004
X083258
X083512
Y070375
X083258
X083004
X08275
Y07065
X083004
X083258
X083512
X083515Y070915
X083261
X083007
X082753
T11
X08659Y06827
Y06725
Y06649
Y06547
T13
X08362Y05594
X08107Y0542
X0887225Y05929
X08362
X08107Y0607
T14
X07227Y0542
X0887225Y055945
X07227Y0607
M30
