G04 Layer_Physical_Order=2*
G04 Layer_Color=36540*
%FSLAX44Y44*%
%MOMM*%
G71*
G01*
G75*
%ADD25C,0.2000*%
%ADD26C,0.2540*%
%ADD27C,0.4000*%
%ADD29C,0.7000*%
%ADD34C,2.0000*%
%ADD40C,1.5240*%
%ADD41C,1.3000*%
%ADD47R,1.8000X2.7500*%
%ADD49C,0.7000*%
%ADD50C,1.8000*%
%ADD51O,0.4000X0.3000*%
%ADD52C,0.8000*%
%ADD53O,0.3000X0.4000*%
%ADD54C,0.5000*%
G36*
X6262000Y7041000D02*
X6266000Y7037000D01*
X6266000Y7011000D01*
X6270000Y7007000D01*
X6930000D01*
X6933000Y7007000D01*
X6944357Y6995643D01*
X6954000Y6986000D01*
X6966875Y6973125D01*
X6966875Y6963125D01*
X6960250Y6956500D01*
X6270500D01*
X6242000Y6985000D01*
X6242000Y7037000D01*
X6246000Y7041000D01*
X6247000Y7041000D01*
X6262000Y7041000D01*
D02*
G37*
G36*
X7005000Y7100000D02*
X7025000Y7080000D01*
Y7050000D01*
Y7015000D01*
X7065000Y6975000D01*
X7133827Y6906173D01*
X7133827D01*
X7133827D01*
X7250000Y6790000D01*
X8025000D01*
X8030000Y6785000D01*
X8035000Y6780000D01*
X8035000D01*
Y6750000D01*
X8020000Y6735000D01*
X7962030D01*
X7962099Y6734857D01*
X7940000Y6706825D01*
X7940000Y6493000D01*
Y6491000D01*
X7906000Y6457000D01*
X7889000Y6440000D01*
X7360000D01*
X7350000Y6450000D01*
Y6470000D01*
X7350000Y6483000D01*
X7358000Y6491000D01*
X7705000Y6491000D01*
X7846000D01*
X7879000Y6524000D01*
X7879000Y6699000D01*
Y6700000D01*
X7844174Y6734827D01*
X7844245Y6735000D01*
X7180000D01*
X7036500Y6878500D01*
X6994000Y6836000D01*
Y6575000D01*
Y6406000D01*
X7112000Y6288000D01*
X7199000Y6201000D01*
X8679000D01*
X8680000Y6200000D01*
X8695000Y6185000D01*
Y6155000D01*
X8679000Y6139000D01*
X8048972D01*
X8049042Y6138850D01*
X8025000Y6110000D01*
Y5625000D01*
X8000000Y5600000D01*
X7850000Y5450000D01*
X7300341D01*
X7300341Y5450000D01*
X7173000Y5450000D01*
X7148000Y5450000D01*
X7049999Y5351999D01*
X7050000Y5307000D01*
X7011000Y5268000D01*
X6966000Y5268000D01*
X6962001Y5272000D01*
X6962000Y5288000D01*
X6965000Y5291000D01*
X6967000Y5293000D01*
X7001000D01*
X7020500Y5312500D01*
X7020500Y5366500D01*
X7135000Y5481000D01*
X7269000Y5481000D01*
X7170000Y5580000D01*
X7000000Y5580000D01*
X6990000D01*
X6980000Y5590000D01*
X6918998Y5589999D01*
X6909000Y5580002D01*
X6882750Y5580000D01*
X6872751Y5589999D01*
X6839999Y5589999D01*
X6830000Y5580000D01*
X6815000Y5580000D01*
X6810000Y5585000D01*
X6810000Y5595000D01*
X6815000Y5600000D01*
X6820000Y5605000D01*
X7152672D01*
X7154875Y5607875D01*
X7077250Y5685500D01*
X6831000Y5685500D01*
X6681000D01*
X6674000Y5692500D01*
Y5700750D01*
X6677000Y5703750D01*
X6686000Y5712750D01*
X6929542Y5712750D01*
X6929819Y5711354D01*
X6931035Y5709535D01*
X6932854Y5708319D01*
X6935000Y5707892D01*
X6937146Y5708319D01*
X6938965Y5709535D01*
X6940181Y5711354D01*
X6940458Y5712750D01*
X6954545D01*
X6955587Y5711480D01*
X6955392Y5710500D01*
X6955819Y5708354D01*
X6957035Y5706534D01*
X6958854Y5705319D01*
X6961000Y5704893D01*
X6963146Y5705319D01*
X6964965Y5706534D01*
X6966181Y5708354D01*
X6966608Y5710500D01*
X6966413Y5711480D01*
X6967455Y5712750D01*
X7088209Y5712750D01*
X7088854Y5712319D01*
X7091000Y5711892D01*
X7093146Y5712319D01*
X7093791Y5712750D01*
X7097252D01*
X7098540Y5711462D01*
X7098122Y5710084D01*
X7097354Y5709931D01*
X7095535Y5708715D01*
X7094319Y5706896D01*
X7093892Y5704750D01*
X7094319Y5702604D01*
X7095535Y5700785D01*
X7097354Y5699569D01*
X7099500Y5699142D01*
X7101646Y5699569D01*
X7103466Y5700785D01*
X7104681Y5702604D01*
X7104833Y5703372D01*
X7106212Y5703790D01*
X7139750Y5670251D01*
Y5907000D01*
X7136500Y5910250D01*
X7110250Y5936500D01*
X6777250D01*
X6774500Y5939250D01*
X6769500Y5944250D01*
Y5956000D01*
Y5970250D01*
X6770500Y5971250D01*
X6775500Y5976250D01*
X7130500D01*
X7134750Y5972000D01*
X7166250Y5940500D01*
Y5643752D01*
X7206009Y5603993D01*
X7206008Y5603992D01*
X7309999Y5499999D01*
X7350000Y5500000D01*
X7790000D01*
X7950000Y5660000D01*
Y5875000D01*
Y6110000D01*
X7925958Y6138850D01*
X7926028Y6139000D01*
X7065201D01*
X7065201Y6139000D01*
X7065000D01*
X7038000Y6166000D01*
X6930000Y6274000D01*
X6930000Y6891727D01*
X6969000Y6941000D01*
Y6975000D01*
X6930000Y7015000D01*
Y7085000D01*
X6910000Y7105000D01*
X6875000Y7140000D01*
X6550000D01*
X6535000Y7155000D01*
X6530000Y7160000D01*
X6500000D01*
X6490000Y7170000D01*
Y7180000D01*
X6495000Y7185000D01*
X6920000D01*
X7005000Y7100000D01*
D02*
G37*
G36*
X7087000Y6781000D02*
X7092000Y6776000D01*
Y6771000D01*
Y6746000D01*
X7096000Y6742000D01*
X7190000Y6648000D01*
X7692000D01*
X7700000Y6640000D01*
X7710000Y6630000D01*
Y6627000D01*
Y6585000D01*
X7703000Y6578000D01*
X7259000D01*
X7259000Y6458000D01*
X7384000Y6333000D01*
X8133182Y6333000D01*
X8675001Y6333000D01*
X8690000Y6320000D01*
Y6306000D01*
Y6290000D01*
X8675000Y6278000D01*
X7259000Y6278000D01*
X7247000Y6290000D01*
X7138000Y6399000D01*
Y6579000D01*
X7002000Y6715000D01*
Y6737000D01*
Y6772000D01*
Y6779000D01*
X7007000Y6784000D01*
X7084000D01*
X7087000Y6781000D01*
D02*
G37*
G36*
X7065000Y6136961D02*
X7065201D01*
X7065201Y6136961D01*
X7904039D01*
X7931000Y6110000D01*
Y6065000D01*
X7921000Y6055000D01*
X7901000Y6055000D01*
X7891000Y6065000D01*
X7891000Y6080000D01*
X7861000Y6110000D01*
X6330000D01*
X6304250Y6110000D01*
X6295000Y6100750D01*
Y6097310D01*
X6294893Y6097266D01*
X6294293Y6096920D01*
X6293672Y6096613D01*
X6291215Y6094972D01*
X6290695Y6094515D01*
X6290146Y6094094D01*
X6288056Y6092004D01*
X6287635Y6091455D01*
X6287491Y6091292D01*
X6286275Y6091584D01*
X6286161Y6091666D01*
X6286120Y6091978D01*
X6285414Y6093680D01*
X6284293Y6095142D01*
X6282830Y6096265D01*
X6281127Y6096970D01*
X6279300Y6097211D01*
X6277473Y6096970D01*
X6275770Y6096265D01*
X6274307Y6095142D01*
X6273185Y6093680D01*
X6272480Y6091978D01*
X6272239Y6090150D01*
X6272480Y6088323D01*
X6273185Y6086620D01*
X6274307Y6085157D01*
X6275770Y6084036D01*
X6277473Y6083330D01*
X6279300Y6083090D01*
X6281127Y6083330D01*
X6282205Y6083777D01*
X6282623Y6083568D01*
X6283281Y6082848D01*
X6282775Y6080305D01*
X6282730Y6079614D01*
X6282640Y6078928D01*
Y6075973D01*
X6282730Y6075286D01*
X6282775Y6074595D01*
X6283281Y6072053D01*
X6282623Y6071332D01*
X6282205Y6071123D01*
X6281127Y6071570D01*
X6279300Y6071810D01*
X6277473Y6071570D01*
X6275770Y6070864D01*
X6274307Y6069742D01*
X6273185Y6068280D01*
X6272480Y6066577D01*
X6272239Y6064750D01*
X6272480Y6062922D01*
X6273185Y6061220D01*
X6274307Y6059758D01*
X6275770Y6058635D01*
X6277473Y6057930D01*
X6279300Y6057690D01*
X6281127Y6057930D01*
X6282830Y6058635D01*
X6284293Y6059758D01*
X6285414Y6061220D01*
X6286120Y6062922D01*
X6286161Y6063234D01*
X6286275Y6063316D01*
X6287491Y6063608D01*
X6287635Y6063445D01*
X6288056Y6062896D01*
X6290146Y6060806D01*
X6290695Y6060385D01*
X6291215Y6059928D01*
X6293672Y6058287D01*
X6294293Y6057980D01*
X6294893Y6057634D01*
X6295000Y6057590D01*
X6295000Y5970000D01*
Y5954000D01*
Y5711000D01*
Y5692000D01*
X6301000Y5686000D01*
X6477000D01*
X6478000Y5685000D01*
X6488000Y5675000D01*
Y5672000D01*
Y5657000D01*
X6478000Y5647000D01*
X6276000D01*
X6272000Y5651000D01*
X6259000Y5664000D01*
Y5711000D01*
Y5713000D01*
Y5968000D01*
X6259000Y6059897D01*
X6260015Y6061220D01*
X6260720Y6062922D01*
X6260961Y6064750D01*
X6260720Y6066577D01*
X6260015Y6068280D01*
X6259000Y6069603D01*
X6259000Y6085297D01*
X6260015Y6086620D01*
X6260720Y6088323D01*
X6260961Y6090150D01*
X6260720Y6091978D01*
X6260015Y6093680D01*
X6259000Y6095002D01*
X6259000Y6109000D01*
X6275247Y6125247D01*
X6276511Y6125122D01*
X6276756Y6124756D01*
X6278244Y6123761D01*
X6280000Y6123412D01*
X6281756Y6123761D01*
X6283244Y6124756D01*
X6284239Y6126244D01*
X6284588Y6128000D01*
X6284239Y6129756D01*
X6283244Y6131245D01*
X6282878Y6131489D01*
X6282753Y6132753D01*
X6286961Y6136961D01*
X7063140D01*
X7063140Y6136961D01*
X7063204D01*
X7063312Y6136982D01*
X7063422Y6136973D01*
X7063510Y6137000D01*
X7064803D01*
X7065000Y6136961D01*
D02*
G37*
G36*
X7063691Y6140309D02*
X7063614Y6139671D01*
X7063481Y6139344D01*
X7063204Y6139000D01*
X7063140D01*
X7063140Y6139000D01*
X6259000D01*
X6243000Y6123000D01*
X6241000Y6121000D01*
Y6090000D01*
Y6081000D01*
X6237000Y6077000D01*
X6223000D01*
X6220000Y6077000D01*
X6216000Y6081000D01*
Y6139000D01*
Y6167000D01*
X6232000Y6183000D01*
X6243000Y6194000D01*
X7010000D01*
X7063691Y6140309D01*
D02*
G37*
%LPC*%
G36*
X6508270Y7178438D02*
Y7172271D01*
X6514438D01*
X6514346Y7172968D01*
X6513586Y7174802D01*
X6512377Y7176378D01*
X6510803Y7177586D01*
X6508969Y7178346D01*
X6508270Y7178438D01*
D02*
G37*
G36*
X6505730Y7178438D02*
X6505032Y7178346D01*
X6503198Y7177586D01*
X6501622Y7176378D01*
X6500414Y7174802D01*
X6499654Y7172968D01*
X6499562Y7172271D01*
X6505730D01*
Y7178438D01*
D02*
G37*
G36*
X6667870Y7179830D02*
Y7171021D01*
X6676680D01*
X6676498Y7172402D01*
X6675475Y7174874D01*
X6673846Y7176996D01*
X6671724Y7178625D01*
X6669252Y7179648D01*
X6667870Y7179830D01*
D02*
G37*
G36*
X6824769Y7179830D02*
Y7171021D01*
X6833580D01*
X6833398Y7172402D01*
X6832375Y7174874D01*
X6830746Y7176996D01*
X6828624Y7178625D01*
X6826152Y7179648D01*
X6824769Y7179830D01*
D02*
G37*
G36*
X6822230Y7179830D02*
X6820848Y7179648D01*
X6818376Y7178625D01*
X6816254Y7176996D01*
X6814625Y7174874D01*
X6813602Y7172402D01*
X6813420Y7171021D01*
X6822230D01*
Y7179830D01*
D02*
G37*
G36*
X6665330Y7179830D02*
X6663948Y7179648D01*
X6661476Y7178625D01*
X6659354Y7176996D01*
X6657725Y7174874D01*
X6656702Y7172402D01*
X6656520Y7171021D01*
X6665330D01*
Y7179830D01*
D02*
G37*
G36*
X6514438Y7169730D02*
X6508270D01*
Y7163562D01*
X6508969Y7163654D01*
X6510803Y7164414D01*
X6512377Y7165623D01*
X6513586Y7167197D01*
X6514346Y7169032D01*
X6514438Y7169730D01*
D02*
G37*
G36*
X6505730D02*
X6499562D01*
X6499654Y7169032D01*
X6500414Y7167197D01*
X6501622Y7165623D01*
X6503198Y7164414D01*
X6505032Y7163654D01*
X6505730Y7163562D01*
Y7169730D01*
D02*
G37*
G36*
X6899700Y7179453D02*
X6897189Y7179122D01*
X6894849Y7178153D01*
X6892839Y7176611D01*
X6891297Y7174601D01*
X6890328Y7172261D01*
X6889997Y7169750D01*
X6890328Y7167239D01*
X6891297Y7164899D01*
X6892839Y7162889D01*
X6894849Y7161347D01*
X6897189Y7160378D01*
X6899700Y7160047D01*
X6902211Y7160378D01*
X6904551Y7161347D01*
X6906561Y7162889D01*
X6908103Y7164899D01*
X6909072Y7167239D01*
X6909403Y7169750D01*
X6909072Y7172261D01*
X6908103Y7174601D01*
X6906561Y7176611D01*
X6904551Y7178153D01*
X6902211Y7179122D01*
X6899700Y7179453D01*
D02*
G37*
G36*
X6874300D02*
X6871789Y7179122D01*
X6869448Y7178153D01*
X6867439Y7176611D01*
X6865897Y7174601D01*
X6864927Y7172261D01*
X6864597Y7169750D01*
X6864927Y7167239D01*
X6865897Y7164899D01*
X6867439Y7162889D01*
X6869448Y7161347D01*
X6871789Y7160378D01*
X6874300Y7160047D01*
X6876812Y7160378D01*
X6879152Y7161347D01*
X6881161Y7162889D01*
X6882703Y7164899D01*
X6883672Y7167239D01*
X6884003Y7169750D01*
X6883672Y7172261D01*
X6882703Y7174601D01*
X6881161Y7176611D01*
X6879152Y7178153D01*
X6876812Y7179122D01*
X6874300Y7179453D01*
D02*
G37*
G36*
X6848900D02*
X6846389Y7179122D01*
X6844048Y7178153D01*
X6842039Y7176611D01*
X6840497Y7174601D01*
X6839528Y7172261D01*
X6839197Y7169750D01*
X6839528Y7167239D01*
X6840497Y7164899D01*
X6842039Y7162889D01*
X6844048Y7161347D01*
X6846389Y7160378D01*
X6848900Y7160047D01*
X6851411Y7160378D01*
X6853751Y7161347D01*
X6855761Y7162889D01*
X6857303Y7164899D01*
X6858273Y7167239D01*
X6858603Y7169750D01*
X6858273Y7172261D01*
X6857303Y7174601D01*
X6855761Y7176611D01*
X6853751Y7178153D01*
X6851411Y7179122D01*
X6848900Y7179453D01*
D02*
G37*
G36*
X6742800D02*
X6740289Y7179122D01*
X6737949Y7178153D01*
X6735939Y7176611D01*
X6734397Y7174601D01*
X6733428Y7172261D01*
X6733097Y7169750D01*
X6733428Y7167239D01*
X6734397Y7164899D01*
X6735939Y7162889D01*
X6737949Y7161347D01*
X6740289Y7160378D01*
X6742800Y7160047D01*
X6745311Y7160378D01*
X6747651Y7161347D01*
X6749661Y7162889D01*
X6751203Y7164899D01*
X6752172Y7167239D01*
X6752503Y7169750D01*
X6752172Y7172261D01*
X6751203Y7174601D01*
X6749661Y7176611D01*
X6747651Y7178153D01*
X6745311Y7179122D01*
X6742800Y7179453D01*
D02*
G37*
G36*
X6717400D02*
X6714889Y7179122D01*
X6712548Y7178153D01*
X6710539Y7176611D01*
X6708997Y7174601D01*
X6708027Y7172261D01*
X6707697Y7169750D01*
X6708027Y7167239D01*
X6708997Y7164899D01*
X6710539Y7162889D01*
X6712548Y7161347D01*
X6714889Y7160378D01*
X6717400Y7160047D01*
X6719911Y7160378D01*
X6722252Y7161347D01*
X6724261Y7162889D01*
X6725803Y7164899D01*
X6726772Y7167239D01*
X6727103Y7169750D01*
X6726772Y7172261D01*
X6725803Y7174601D01*
X6724261Y7176611D01*
X6722252Y7178153D01*
X6719911Y7179122D01*
X6717400Y7179453D01*
D02*
G37*
G36*
X6692000D02*
X6689489Y7179122D01*
X6687148Y7178153D01*
X6685139Y7176611D01*
X6683597Y7174601D01*
X6682628Y7172261D01*
X6682297Y7169750D01*
X6682628Y7167239D01*
X6683597Y7164899D01*
X6685139Y7162889D01*
X6687148Y7161347D01*
X6689489Y7160378D01*
X6692000Y7160047D01*
X6694511Y7160378D01*
X6696851Y7161347D01*
X6698861Y7162889D01*
X6700403Y7164899D01*
X6701373Y7167239D01*
X6701703Y7169750D01*
X6701373Y7172261D01*
X6700403Y7174601D01*
X6698861Y7176611D01*
X6696851Y7178153D01*
X6694511Y7179122D01*
X6692000Y7179453D01*
D02*
G37*
G36*
X6822230Y7168480D02*
X6813420D01*
X6813602Y7167098D01*
X6814625Y7164626D01*
X6816254Y7162504D01*
X6818376Y7160875D01*
X6820848Y7159852D01*
X6822230Y7159670D01*
Y7168480D01*
D02*
G37*
G36*
X6676680D02*
X6667870D01*
Y7159670D01*
X6669252Y7159852D01*
X6671724Y7160875D01*
X6673846Y7162504D01*
X6675475Y7164626D01*
X6676498Y7167098D01*
X6676680Y7168480D01*
D02*
G37*
G36*
X6665330D02*
X6656520D01*
X6656702Y7167098D01*
X6657725Y7164626D01*
X6659354Y7162504D01*
X6661476Y7160875D01*
X6663948Y7159852D01*
X6665330Y7159670D01*
Y7168480D01*
D02*
G37*
G36*
X6833580D02*
X6824769D01*
Y7159670D01*
X6826152Y7159852D01*
X6828624Y7160875D01*
X6830746Y7162504D01*
X6832375Y7164626D01*
X6833398Y7167098D01*
X6833580Y7168480D01*
D02*
G37*
G36*
X6917020Y7129156D02*
Y7124520D01*
X6921656D01*
X6921440Y7125607D01*
X6920104Y7127604D01*
X6918107Y7128939D01*
X6917020Y7129156D01*
D02*
G37*
G36*
X6914480D02*
X6913394Y7128939D01*
X6911395Y7127604D01*
X6910060Y7125607D01*
X6909844Y7124520D01*
X6914480D01*
Y7129156D01*
D02*
G37*
G36*
X6921656Y7121980D02*
X6917020D01*
Y7117344D01*
X6918107Y7117560D01*
X6920104Y7118895D01*
X6921440Y7120894D01*
X6921656Y7121980D01*
D02*
G37*
G36*
X6914480D02*
X6909844D01*
X6910060Y7120894D01*
X6911395Y7118895D01*
X6913394Y7117560D01*
X6914480Y7117344D01*
Y7121980D01*
D02*
G37*
G36*
X6939800Y7062460D02*
X6937972Y7062220D01*
X6936270Y7061514D01*
X6934808Y7060392D01*
X6933685Y7058930D01*
X6932980Y7057227D01*
X6932740Y7055400D01*
X6932980Y7053573D01*
X6933685Y7051870D01*
X6934808Y7050408D01*
X6936270Y7049285D01*
X6937972Y7048580D01*
X6939800Y7048340D01*
X6941627Y7048580D01*
X6943330Y7049285D01*
X6944792Y7050408D01*
X6945914Y7051870D01*
X6946620Y7053573D01*
X6946860Y7055400D01*
X6946620Y7057227D01*
X6945914Y7058930D01*
X6944792Y7060392D01*
X6943330Y7061514D01*
X6941627Y7062220D01*
X6939800Y7062460D01*
D02*
G37*
G36*
Y7037061D02*
X6937972Y7036820D01*
X6936270Y7036115D01*
X6934808Y7034993D01*
X6933685Y7033530D01*
X6932980Y7031827D01*
X6932740Y7030000D01*
X6932980Y7028173D01*
X6933685Y7026470D01*
X6934808Y7025007D01*
X6936270Y7023885D01*
X6937972Y7023180D01*
X6939800Y7022939D01*
X6941627Y7023180D01*
X6943330Y7023885D01*
X6944792Y7025007D01*
X6945914Y7026470D01*
X6946620Y7028173D01*
X6946860Y7030000D01*
X6946620Y7031827D01*
X6945914Y7033530D01*
X6944792Y7034993D01*
X6943330Y7036115D01*
X6941627Y7036820D01*
X6939800Y7037061D01*
D02*
G37*
G36*
X6992078Y7064767D02*
X6989122D01*
X6988436Y7064677D01*
X6987745Y7064631D01*
X6984847Y7064055D01*
X6984192Y7063832D01*
X6983523Y7063653D01*
X6980793Y7062522D01*
X6980193Y7062176D01*
X6979572Y7061870D01*
X6977115Y7060228D01*
X6976595Y7059772D01*
X6976046Y7059350D01*
X6973956Y7057261D01*
X6973535Y7056711D01*
X6973078Y7056191D01*
X6971437Y7053734D01*
X6971130Y7053113D01*
X6970784Y7052513D01*
X6969653Y7049783D01*
X6969474Y7049114D01*
X6969252Y7048459D01*
X6968675Y7045561D01*
X6968630Y7044870D01*
X6968539Y7044183D01*
Y7041229D01*
X6968630Y7040543D01*
X6968675Y7039852D01*
X6969252Y7036954D01*
X6969474Y7036298D01*
X6969653Y7035629D01*
X6970784Y7032899D01*
X6971130Y7032299D01*
X6971437Y7031678D01*
X6973078Y7029222D01*
X6973535Y7028701D01*
X6973956Y7028152D01*
X6976046Y7026063D01*
X6976595Y7025641D01*
X6977115Y7025184D01*
X6979572Y7023543D01*
X6980193Y7023237D01*
X6980793Y7022891D01*
X6983523Y7021760D01*
X6984192Y7021580D01*
X6984847Y7021358D01*
X6987745Y7020781D01*
X6988436Y7020736D01*
X6989122Y7020646D01*
X6992078D01*
X6992764Y7020736D01*
X6993455Y7020781D01*
X6996353Y7021358D01*
X6997008Y7021580D01*
X6997677Y7021760D01*
X7000407Y7022891D01*
X7001007Y7023237D01*
X7001628Y7023543D01*
X7004084Y7025184D01*
X7004605Y7025641D01*
X7005154Y7026063D01*
X7007244Y7028152D01*
X7007665Y7028701D01*
X7008122Y7029222D01*
X7009763Y7031678D01*
X7010070Y7032299D01*
X7010416Y7032899D01*
X7011547Y7035629D01*
X7011725Y7036298D01*
X7011948Y7036954D01*
X7012524Y7039852D01*
X7012570Y7040543D01*
X7012661Y7041229D01*
Y7044183D01*
X7012570Y7044870D01*
X7012524Y7045561D01*
X7011948Y7048459D01*
X7011725Y7049114D01*
X7011547Y7049783D01*
X7010416Y7052513D01*
X7010070Y7053113D01*
X7009763Y7053734D01*
X7008122Y7056191D01*
X7007665Y7056711D01*
X7007244Y7057261D01*
X7005154Y7059350D01*
X7004605Y7059772D01*
X7004084Y7060228D01*
X7001628Y7061870D01*
X7001007Y7062176D01*
X7000407Y7062522D01*
X6997677Y7063653D01*
X6997009Y7063832D01*
X6996353Y7064055D01*
X6993455Y7064631D01*
X6992764Y7064677D01*
X6992078Y7064767D01*
D02*
G37*
G36*
X7025470Y6932688D02*
Y6926520D01*
X7031638D01*
X7031546Y6927219D01*
X7030786Y6929053D01*
X7029578Y6930627D01*
X7028002Y6931836D01*
X7026168Y6932596D01*
X7025470Y6932688D01*
D02*
G37*
G36*
X7022930D02*
X7022231Y6932596D01*
X7020397Y6931836D01*
X7018823Y6930627D01*
X7017614Y6929053D01*
X7016854Y6927219D01*
X7016762Y6926520D01*
X7022930D01*
Y6932688D01*
D02*
G37*
G36*
X7075000Y6932310D02*
X7073173Y6932070D01*
X7071470Y6931365D01*
X7070007Y6930242D01*
X7068885Y6928780D01*
X7068180Y6927078D01*
X7067939Y6925250D01*
X7068180Y6923423D01*
X7068885Y6921720D01*
X7070007Y6920258D01*
X7071470Y6919136D01*
X7073173Y6918430D01*
X7075000Y6918190D01*
X7076827Y6918430D01*
X7078530Y6919136D01*
X7079993Y6920258D01*
X7081115Y6921720D01*
X7081820Y6923423D01*
X7082061Y6925250D01*
X7081820Y6927078D01*
X7081115Y6928780D01*
X7079993Y6930242D01*
X7078530Y6931365D01*
X7076827Y6932070D01*
X7075000Y6932310D01*
D02*
G37*
G36*
X7049600D02*
X7047773Y6932070D01*
X7046070Y6931365D01*
X7044608Y6930242D01*
X7043486Y6928780D01*
X7042780Y6927078D01*
X7042540Y6925250D01*
X7042780Y6923423D01*
X7043486Y6921720D01*
X7044608Y6920258D01*
X7046070Y6919136D01*
X7047773Y6918430D01*
X7049600Y6918190D01*
X7051428Y6918430D01*
X7053130Y6919136D01*
X7054592Y6920258D01*
X7055715Y6921720D01*
X7056420Y6923423D01*
X7056660Y6925250D01*
X7056420Y6927078D01*
X7055715Y6928780D01*
X7054592Y6930242D01*
X7053130Y6931365D01*
X7051428Y6932070D01*
X7049600Y6932310D01*
D02*
G37*
G36*
X7031638Y6923980D02*
X7025470D01*
Y6917812D01*
X7026168Y6917904D01*
X7028002Y6918664D01*
X7029578Y6919872D01*
X7030786Y6921448D01*
X7031546Y6923282D01*
X7031638Y6923980D01*
D02*
G37*
G36*
X7022930D02*
X7016762D01*
X7016854Y6923282D01*
X7017614Y6921448D01*
X7018823Y6919872D01*
X7020397Y6918664D01*
X7022231Y6917904D01*
X7022930Y6917812D01*
Y6923980D01*
D02*
G37*
G36*
X7924270Y6675906D02*
Y6671270D01*
X7928906D01*
X7928690Y6672357D01*
X7927355Y6674355D01*
X7925356Y6675690D01*
X7924270Y6675906D01*
D02*
G37*
G36*
X7921730D02*
X7920643Y6675690D01*
X7918646Y6674355D01*
X7917311Y6672357D01*
X7917094Y6671270D01*
X7921730D01*
Y6675906D01*
D02*
G37*
G36*
X7928906Y6668730D02*
X7924270D01*
Y6664094D01*
X7925356Y6664310D01*
X7927355Y6665645D01*
X7928690Y6667643D01*
X7928906Y6668730D01*
D02*
G37*
G36*
X7921730D02*
X7917094D01*
X7917311Y6667643D01*
X7918646Y6665645D01*
X7920643Y6664310D01*
X7921730Y6664094D01*
Y6668730D01*
D02*
G37*
G36*
X7924270Y6658239D02*
Y6653604D01*
X7928906D01*
X7928690Y6654690D01*
X7927355Y6656688D01*
X7925356Y6658023D01*
X7924270Y6658239D01*
D02*
G37*
G36*
X7921730D02*
X7920643Y6658023D01*
X7918646Y6656688D01*
X7917311Y6654690D01*
X7917094Y6653604D01*
X7921730D01*
Y6658239D01*
D02*
G37*
G36*
X7928906Y6651063D02*
X7924270D01*
Y6646428D01*
X7925356Y6646644D01*
X7927355Y6647979D01*
X7928690Y6649977D01*
X7928906Y6651063D01*
D02*
G37*
G36*
X7921730D02*
X7917094D01*
X7917311Y6649977D01*
X7918646Y6647979D01*
X7920643Y6646644D01*
X7921730Y6646428D01*
Y6651063D01*
D02*
G37*
G36*
X7924270Y6640573D02*
Y6635937D01*
X7928906D01*
X7928690Y6637023D01*
X7927355Y6639021D01*
X7925356Y6640356D01*
X7924270Y6640573D01*
D02*
G37*
G36*
X7921730D02*
X7920643Y6640356D01*
X7918646Y6639021D01*
X7917311Y6637023D01*
X7917094Y6635937D01*
X7921730D01*
Y6640573D01*
D02*
G37*
G36*
X7928906Y6633397D02*
X7924270D01*
Y6628761D01*
X7925356Y6628977D01*
X7927355Y6630312D01*
X7928690Y6632310D01*
X7928906Y6633397D01*
D02*
G37*
G36*
X7921730D02*
X7917094D01*
X7917311Y6632310D01*
X7918646Y6630312D01*
X7920643Y6628977D01*
X7921730Y6628761D01*
Y6633397D01*
D02*
G37*
G36*
X7924270Y6622906D02*
Y6618270D01*
X7928906D01*
X7928690Y6619357D01*
X7927355Y6621354D01*
X7925356Y6622689D01*
X7924270Y6622906D01*
D02*
G37*
G36*
X7921730D02*
X7920643Y6622689D01*
X7918646Y6621354D01*
X7917311Y6619357D01*
X7917094Y6618270D01*
X7921730D01*
Y6622906D01*
D02*
G37*
G36*
X7928906Y6615730D02*
X7924270D01*
Y6611094D01*
X7925356Y6611310D01*
X7927355Y6612645D01*
X7928690Y6614644D01*
X7928906Y6615730D01*
D02*
G37*
G36*
X7921730D02*
X7917094D01*
X7917311Y6614644D01*
X7918646Y6612645D01*
X7920643Y6611310D01*
X7921730Y6611094D01*
Y6615730D01*
D02*
G37*
G36*
X7039870Y5962829D02*
Y5957670D01*
X7045029D01*
X7044972Y5958107D01*
X7044313Y5959698D01*
X7043264Y5961064D01*
X7041898Y5962112D01*
X7040307Y5962772D01*
X7039870Y5962829D01*
D02*
G37*
G36*
X7014470D02*
Y5957670D01*
X7019630D01*
X7019572Y5958107D01*
X7018913Y5959698D01*
X7017864Y5961064D01*
X7016498Y5962112D01*
X7014907Y5962772D01*
X7014470Y5962829D01*
D02*
G37*
G36*
X6811270D02*
Y5957670D01*
X6816429D01*
X6816371Y5958107D01*
X6815713Y5959698D01*
X6814664Y5961064D01*
X6813298Y5962112D01*
X6811707Y5962772D01*
X6811270Y5962829D01*
D02*
G37*
G36*
X6785870D02*
Y5957670D01*
X6791029D01*
X6790972Y5958107D01*
X6790312Y5959698D01*
X6789265Y5961064D01*
X6787898Y5962112D01*
X6786307Y5962772D01*
X6785870Y5962829D01*
D02*
G37*
G36*
X7037330Y5962829D02*
X7036893Y5962772D01*
X7035302Y5962112D01*
X7033936Y5961064D01*
X7032888Y5959698D01*
X7032228Y5958107D01*
X7032170Y5957670D01*
X7037330D01*
Y5962829D01*
D02*
G37*
G36*
X7011930D02*
X7011493Y5962772D01*
X7009902Y5962112D01*
X7008536Y5961064D01*
X7007487Y5959698D01*
X7006828Y5958107D01*
X7006771Y5957670D01*
X7011930D01*
Y5962829D01*
D02*
G37*
G36*
X6808730D02*
X6808293Y5962772D01*
X6806702Y5962112D01*
X6805336Y5961064D01*
X6804287Y5959698D01*
X6803629Y5958107D01*
X6803571Y5957670D01*
X6808730D01*
Y5962829D01*
D02*
G37*
G36*
X6783330D02*
X6782892Y5962772D01*
X6781302Y5962112D01*
X6779935Y5961064D01*
X6778887Y5959698D01*
X6778228Y5958107D01*
X6778171Y5957670D01*
X6783330D01*
Y5962829D01*
D02*
G37*
G36*
X7114800Y5962518D02*
X7112459Y5962052D01*
X7110474Y5960726D01*
X7109148Y5958741D01*
X7108682Y5956400D01*
X7109148Y5954059D01*
X7110474Y5952075D01*
X7112459Y5950748D01*
X7114800Y5950283D01*
X7117141Y5950748D01*
X7119126Y5952075D01*
X7120452Y5954059D01*
X7120917Y5956400D01*
X7120452Y5958741D01*
X7119126Y5960726D01*
X7117141Y5962052D01*
X7114800Y5962518D01*
D02*
G37*
G36*
X7089400D02*
X7087059Y5962052D01*
X7085074Y5960726D01*
X7083748Y5958741D01*
X7083282Y5956400D01*
X7083748Y5954059D01*
X7085074Y5952075D01*
X7087059Y5950748D01*
X7089400Y5950283D01*
X7091741Y5950748D01*
X7093726Y5952075D01*
X7095052Y5954059D01*
X7095518Y5956400D01*
X7095052Y5958741D01*
X7093726Y5960726D01*
X7091741Y5962052D01*
X7089400Y5962518D01*
D02*
G37*
G36*
X7064000D02*
X7061659Y5962052D01*
X7059674Y5960726D01*
X7058348Y5958741D01*
X7057883Y5956400D01*
X7058348Y5954059D01*
X7059674Y5952075D01*
X7061659Y5950748D01*
X7064000Y5950283D01*
X7066341Y5950748D01*
X7068326Y5952075D01*
X7069652Y5954059D01*
X7070118Y5956400D01*
X7069652Y5958741D01*
X7068326Y5960726D01*
X7066341Y5962052D01*
X7064000Y5962518D01*
D02*
G37*
G36*
X6987800D02*
X6985459Y5962052D01*
X6983474Y5960726D01*
X6982148Y5958741D01*
X6981683Y5956400D01*
X6982148Y5954059D01*
X6983474Y5952075D01*
X6985459Y5950748D01*
X6987800Y5950283D01*
X6990141Y5950748D01*
X6992126Y5952075D01*
X6993452Y5954059D01*
X6993917Y5956400D01*
X6993452Y5958741D01*
X6992126Y5960726D01*
X6990141Y5962052D01*
X6987800Y5962518D01*
D02*
G37*
G36*
X6962400D02*
X6960059Y5962052D01*
X6958074Y5960726D01*
X6956748Y5958741D01*
X6956282Y5956400D01*
X6956748Y5954059D01*
X6958074Y5952075D01*
X6960059Y5950748D01*
X6962400Y5950283D01*
X6964741Y5950748D01*
X6966725Y5952075D01*
X6968052Y5954059D01*
X6968517Y5956400D01*
X6968052Y5958741D01*
X6966725Y5960726D01*
X6964741Y5962052D01*
X6962400Y5962518D01*
D02*
G37*
G36*
X6937000D02*
X6934659Y5962052D01*
X6932674Y5960726D01*
X6931348Y5958741D01*
X6930883Y5956400D01*
X6931348Y5954059D01*
X6932674Y5952075D01*
X6934659Y5950748D01*
X6937000Y5950283D01*
X6939341Y5950748D01*
X6941326Y5952075D01*
X6942652Y5954059D01*
X6943118Y5956400D01*
X6942652Y5958741D01*
X6941326Y5960726D01*
X6939341Y5962052D01*
X6937000Y5962518D01*
D02*
G37*
G36*
X6911600D02*
X6909259Y5962052D01*
X6907274Y5960726D01*
X6905948Y5958741D01*
X6905483Y5956400D01*
X6905948Y5954059D01*
X6907274Y5952075D01*
X6909259Y5950748D01*
X6911600Y5950283D01*
X6913941Y5950748D01*
X6915926Y5952075D01*
X6917252Y5954059D01*
X6917717Y5956400D01*
X6917252Y5958741D01*
X6915926Y5960726D01*
X6913941Y5962052D01*
X6911600Y5962518D01*
D02*
G37*
G36*
X6886200D02*
X6883859Y5962052D01*
X6881874Y5960726D01*
X6880548Y5958741D01*
X6880082Y5956400D01*
X6880548Y5954059D01*
X6881874Y5952075D01*
X6883859Y5950748D01*
X6886200Y5950283D01*
X6888541Y5950748D01*
X6890526Y5952075D01*
X6891852Y5954059D01*
X6892318Y5956400D01*
X6891852Y5958741D01*
X6890526Y5960726D01*
X6888541Y5962052D01*
X6886200Y5962518D01*
D02*
G37*
G36*
X6860800D02*
X6858459Y5962052D01*
X6856474Y5960726D01*
X6855148Y5958741D01*
X6854683Y5956400D01*
X6855148Y5954059D01*
X6856474Y5952075D01*
X6858459Y5950748D01*
X6860800Y5950283D01*
X6863141Y5950748D01*
X6865126Y5952075D01*
X6866452Y5954059D01*
X6866918Y5956400D01*
X6866452Y5958741D01*
X6865126Y5960726D01*
X6863141Y5962052D01*
X6860800Y5962518D01*
D02*
G37*
G36*
X6835400D02*
X6833059Y5962052D01*
X6831074Y5960726D01*
X6829748Y5958741D01*
X6829282Y5956400D01*
X6829748Y5954059D01*
X6831074Y5952075D01*
X6833059Y5950748D01*
X6835400Y5950283D01*
X6837741Y5950748D01*
X6839726Y5952075D01*
X6841052Y5954059D01*
X6841517Y5956400D01*
X6841052Y5958741D01*
X6839726Y5960726D01*
X6837741Y5962052D01*
X6835400Y5962518D01*
D02*
G37*
G36*
X7037330Y5955130D02*
X7032171D01*
X7032228Y5954693D01*
X7032888Y5953102D01*
X7033936Y5951736D01*
X7035302Y5950687D01*
X7036893Y5950028D01*
X7037330Y5949971D01*
Y5955130D01*
D02*
G37*
G36*
X7011930D02*
X7006771D01*
X7006828Y5954693D01*
X7007487Y5953102D01*
X7008536Y5951736D01*
X7009902Y5950687D01*
X7011493Y5950028D01*
X7011930Y5949971D01*
Y5955130D01*
D02*
G37*
G36*
X6808730D02*
X6803571D01*
X6803629Y5954693D01*
X6804287Y5953102D01*
X6805336Y5951736D01*
X6806702Y5950687D01*
X6808293Y5950028D01*
X6808730Y5949971D01*
Y5955130D01*
D02*
G37*
G36*
X6783330D02*
X6778171D01*
X6778228Y5954693D01*
X6778887Y5953102D01*
X6779935Y5951736D01*
X6781302Y5950687D01*
X6782892Y5950028D01*
X6783330Y5949971D01*
Y5955130D01*
D02*
G37*
G36*
X7045029D02*
X7039870D01*
Y5949971D01*
X7040307Y5950028D01*
X7041898Y5950687D01*
X7043264Y5951736D01*
X7044313Y5953102D01*
X7044972Y5954693D01*
X7045029Y5955130D01*
D02*
G37*
G36*
X7019629D02*
X7014470D01*
Y5949971D01*
X7014907Y5950028D01*
X7016498Y5950687D01*
X7017864Y5951736D01*
X7018913Y5953102D01*
X7019572Y5954693D01*
X7019629Y5955130D01*
D02*
G37*
G36*
X6816429D02*
X6811270D01*
Y5949971D01*
X6811707Y5950028D01*
X6813298Y5950687D01*
X6814664Y5951736D01*
X6815713Y5953102D01*
X6816371Y5954693D01*
X6816429Y5955130D01*
D02*
G37*
G36*
X6791029D02*
X6785870D01*
Y5949971D01*
X6786307Y5950028D01*
X6787898Y5950687D01*
X6789265Y5951736D01*
X6790312Y5953102D01*
X6790972Y5954693D01*
X6791029Y5955130D01*
D02*
G37*
G36*
X6991270Y5703655D02*
Y5699020D01*
X6995906D01*
X6995690Y5700107D01*
X6994355Y5702104D01*
X6992357Y5703439D01*
X6991270Y5703655D01*
D02*
G37*
G36*
X6988730D02*
X6987643Y5703439D01*
X6985645Y5702104D01*
X6984310Y5700107D01*
X6984094Y5699020D01*
X6988730D01*
Y5703655D01*
D02*
G37*
G36*
X6923770Y5702636D02*
Y5699020D01*
X6927386D01*
X6927247Y5699717D01*
X6926133Y5701384D01*
X6924467Y5702498D01*
X6923770Y5702636D01*
D02*
G37*
G36*
X6921230D02*
X6920533Y5702498D01*
X6918867Y5701384D01*
X6917753Y5699717D01*
X6917614Y5699020D01*
X6921230D01*
Y5702636D01*
D02*
G37*
G36*
X6755270Y5703655D02*
Y5699020D01*
X6759905D01*
X6759689Y5700107D01*
X6758354Y5702104D01*
X6756357Y5703439D01*
X6755270Y5703655D01*
D02*
G37*
G36*
X6752730D02*
X6751643Y5703439D01*
X6749645Y5702104D01*
X6748311Y5700107D01*
X6748094Y5699020D01*
X6752730D01*
Y5703655D01*
D02*
G37*
G36*
X6691270D02*
Y5699020D01*
X6695906D01*
X6695690Y5700107D01*
X6694355Y5702104D01*
X6692357Y5703439D01*
X6691270Y5703655D01*
D02*
G37*
G36*
X6688730D02*
X6687643Y5703439D01*
X6685645Y5702104D01*
X6684310Y5700107D01*
X6684094Y5699020D01*
X6688730D01*
Y5703655D01*
D02*
G37*
G36*
X6716500Y5709858D02*
X6714354Y5709431D01*
X6712535Y5708215D01*
X6711319Y5706396D01*
X6710892Y5704250D01*
X6711319Y5702104D01*
X6712535Y5700284D01*
X6714354Y5699069D01*
X6716500Y5698643D01*
X6718646Y5699069D01*
X6720465Y5700284D01*
X6721681Y5702104D01*
X6722108Y5704250D01*
X6721681Y5706396D01*
X6720465Y5708215D01*
X6718646Y5709431D01*
X6716500Y5709858D01*
D02*
G37*
G36*
X6733578Y5709636D02*
X6731432Y5709209D01*
X6729613Y5707994D01*
X6728398Y5706174D01*
X6727971Y5704028D01*
X6728398Y5701882D01*
X6729613Y5700063D01*
X6731432Y5698848D01*
X6733578Y5698420D01*
X6735724Y5698848D01*
X6737544Y5700063D01*
X6738759Y5701882D01*
X6739186Y5704028D01*
X6738759Y5706174D01*
X6737544Y5707994D01*
X6735724Y5709209D01*
X6733578Y5709636D01*
D02*
G37*
G36*
X7086250Y5709358D02*
X7084104Y5708931D01*
X7082285Y5707715D01*
X7081069Y5705896D01*
X7080642Y5703750D01*
X7081069Y5701604D01*
X7082285Y5699785D01*
X7084104Y5698569D01*
X7086250Y5698142D01*
X7088396Y5698569D01*
X7090215Y5699785D01*
X7091431Y5701604D01*
X7091858Y5703750D01*
X7091431Y5705896D01*
X7090215Y5707715D01*
X7088396Y5708931D01*
X7086250Y5709358D01*
D02*
G37*
G36*
X6972750Y5706357D02*
X6970604Y5705931D01*
X6968785Y5704716D01*
X6967569Y5702896D01*
X6967142Y5700750D01*
X6967569Y5698604D01*
X6968785Y5696785D01*
X6970604Y5695569D01*
X6972750Y5695142D01*
X6974896Y5695569D01*
X6976715Y5696785D01*
X6977931Y5698604D01*
X6978358Y5700750D01*
X6977931Y5702896D01*
X6976715Y5704716D01*
X6974896Y5705931D01*
X6972750Y5706357D01*
D02*
G37*
G36*
X6830250Y5706108D02*
X6828104Y5705681D01*
X6826285Y5704465D01*
X6825069Y5702646D01*
X6824642Y5700500D01*
X6825069Y5698354D01*
X6826285Y5696534D01*
X6828104Y5695319D01*
X6830250Y5694893D01*
X6832396Y5695319D01*
X6834215Y5696534D01*
X6835431Y5698354D01*
X6835858Y5700500D01*
X6835431Y5702646D01*
X6834215Y5704465D01*
X6832396Y5705681D01*
X6830250Y5706108D01*
D02*
G37*
G36*
X6927386Y5696480D02*
X6923770D01*
Y5692864D01*
X6924467Y5693002D01*
X6926133Y5694116D01*
X6927247Y5695784D01*
X6927386Y5696480D01*
D02*
G37*
G36*
X6921230D02*
X6917614D01*
X6917753Y5695784D01*
X6918867Y5694116D01*
X6920533Y5693002D01*
X6921230Y5692864D01*
Y5696480D01*
D02*
G37*
G36*
X6849000Y5703608D02*
X6846854Y5703181D01*
X6845035Y5701965D01*
X6843819Y5700146D01*
X6843392Y5698000D01*
X6843819Y5695854D01*
X6845035Y5694034D01*
X6846854Y5692819D01*
X6849000Y5692393D01*
X6851146Y5692819D01*
X6852965Y5694034D01*
X6854181Y5695854D01*
X6854608Y5698000D01*
X6854181Y5700146D01*
X6852965Y5701965D01*
X6851146Y5703181D01*
X6849000Y5703608D01*
D02*
G37*
G36*
X6995906Y5696480D02*
X6991270D01*
Y5691844D01*
X6992357Y5692061D01*
X6994355Y5693395D01*
X6995690Y5695393D01*
X6995906Y5696480D01*
D02*
G37*
G36*
X6988730D02*
X6984094D01*
X6984310Y5695393D01*
X6985645Y5693395D01*
X6987643Y5692061D01*
X6988730Y5691844D01*
Y5696480D01*
D02*
G37*
G36*
X6759905D02*
X6755270D01*
Y5691844D01*
X6756357Y5692061D01*
X6758354Y5693395D01*
X6759689Y5695393D01*
X6759905Y5696480D01*
D02*
G37*
G36*
X6752730D02*
X6748094D01*
X6748311Y5695393D01*
X6749645Y5693395D01*
X6751643Y5692061D01*
X6752730Y5691844D01*
Y5696480D01*
D02*
G37*
G36*
X6695906D02*
X6691270D01*
Y5691844D01*
X6692357Y5692061D01*
X6694355Y5693395D01*
X6695690Y5695393D01*
X6695906Y5696480D01*
D02*
G37*
G36*
X6688730D02*
X6684094D01*
X6684310Y5695393D01*
X6685645Y5693395D01*
X6687643Y5692061D01*
X6688730Y5691844D01*
Y5696480D01*
D02*
G37*
G36*
X6887270Y5595156D02*
Y5590520D01*
X6891906D01*
X6891689Y5591606D01*
X6890355Y5593605D01*
X6888357Y5594940D01*
X6887270Y5595156D01*
D02*
G37*
G36*
X6884730D02*
X6883643Y5594940D01*
X6881646Y5593605D01*
X6880311Y5591606D01*
X6880095Y5590520D01*
X6884730D01*
Y5595156D01*
D02*
G37*
G36*
X7126520Y5593886D02*
Y5590270D01*
X7130136D01*
X7129998Y5590967D01*
X7128884Y5592634D01*
X7127217Y5593748D01*
X7126520Y5593886D01*
D02*
G37*
G36*
X7123980D02*
X7123284Y5593748D01*
X7121616Y5592634D01*
X7120502Y5590967D01*
X7120364Y5590270D01*
X7123980D01*
Y5593886D01*
D02*
G37*
G36*
X7062770Y5594905D02*
Y5590270D01*
X7067405D01*
X7067189Y5591357D01*
X7065854Y5593354D01*
X7063857Y5594689D01*
X7062770Y5594905D01*
D02*
G37*
G36*
X7060230D02*
X7059143Y5594689D01*
X7057145Y5593354D01*
X7055811Y5591357D01*
X7055594Y5590270D01*
X7060230D01*
Y5594905D01*
D02*
G37*
G36*
X6824020Y5593886D02*
Y5590270D01*
X6827636D01*
X6827498Y5590967D01*
X6826384Y5592634D01*
X6824717Y5593748D01*
X6824020Y5593886D01*
D02*
G37*
G36*
X6821480D02*
X6820784Y5593748D01*
X6819116Y5592634D01*
X6818002Y5590967D01*
X6817864Y5590270D01*
X6821480D01*
Y5593886D01*
D02*
G37*
G36*
X7130136Y5587730D02*
X7126520D01*
Y5584114D01*
X7127217Y5584252D01*
X7128884Y5585366D01*
X7129998Y5587034D01*
X7130136Y5587730D01*
D02*
G37*
G36*
X7123980D02*
X7120364D01*
X7120502Y5587034D01*
X7121616Y5585366D01*
X7123284Y5584252D01*
X7123980Y5584114D01*
Y5587730D01*
D02*
G37*
G36*
X6827636D02*
X6824020D01*
Y5584114D01*
X6824717Y5584252D01*
X6826384Y5585366D01*
X6827498Y5587034D01*
X6827636Y5587730D01*
D02*
G37*
G36*
X6821480D02*
X6817864D01*
X6818002Y5587034D01*
X6819116Y5585366D01*
X6820784Y5584252D01*
X6821480Y5584114D01*
Y5587730D01*
D02*
G37*
G36*
X6891906Y5587980D02*
X6887270D01*
Y5583344D01*
X6888357Y5583561D01*
X6890355Y5584896D01*
X6891689Y5586893D01*
X6891906Y5587980D01*
D02*
G37*
G36*
X6884730D02*
X6880095D01*
X6880311Y5586893D01*
X6881646Y5584896D01*
X6883643Y5583561D01*
X6884730Y5583344D01*
Y5587980D01*
D02*
G37*
G36*
X7067405Y5587730D02*
X7062770D01*
Y5583094D01*
X7063857Y5583311D01*
X7065854Y5584645D01*
X7067189Y5586643D01*
X7067405Y5587730D01*
D02*
G37*
G36*
X7060230D02*
X7055594D01*
X7055811Y5586643D01*
X7057145Y5584645D01*
X7059143Y5583311D01*
X7060230Y5583094D01*
Y5587730D01*
D02*
G37*
G36*
X6978270Y5291080D02*
Y5282270D01*
X6987081D01*
X6986899Y5283652D01*
X6985875Y5286124D01*
X6984246Y5288246D01*
X6982124Y5289875D01*
X6979652Y5290898D01*
X6978270Y5291080D01*
D02*
G37*
G36*
X6975731Y5291080D02*
X6974348Y5290898D01*
X6971876Y5289875D01*
X6969754Y5288246D01*
X6968125Y5286124D01*
X6967101Y5283652D01*
X6966920Y5282270D01*
X6975731D01*
Y5291080D01*
D02*
G37*
G36*
X6987081Y5279730D02*
X6978270D01*
Y5270920D01*
X6979652Y5271102D01*
X6982124Y5272125D01*
X6984246Y5273754D01*
X6985875Y5275876D01*
X6986899Y5278348D01*
X6987081Y5279730D01*
D02*
G37*
G36*
X6975731D02*
X6966920D01*
X6967101Y5278348D01*
X6968125Y5275876D01*
X6969754Y5273754D01*
X6971876Y5272125D01*
X6974348Y5271102D01*
X6975731Y5270920D01*
Y5279730D01*
D02*
G37*
G36*
X6401800Y5681303D02*
X6399289Y5680972D01*
X6396948Y5680003D01*
X6394939Y5678461D01*
X6393397Y5676451D01*
X6392427Y5674111D01*
X6392097Y5671600D01*
X6392427Y5669089D01*
X6393397Y5666749D01*
X6394939Y5664739D01*
X6396948Y5663197D01*
X6399289Y5662228D01*
X6401800Y5661897D01*
X6404312Y5662228D01*
X6406652Y5663197D01*
X6408661Y5664739D01*
X6410203Y5666749D01*
X6411172Y5669089D01*
X6411503Y5671600D01*
X6411172Y5674111D01*
X6410203Y5676451D01*
X6408661Y5678461D01*
X6406652Y5680003D01*
X6404312Y5680972D01*
X6401800Y5681303D01*
D02*
G37*
G36*
X6347800D02*
X6345289Y5680972D01*
X6342949Y5680003D01*
X6340939Y5678461D01*
X6339397Y5676451D01*
X6338428Y5674111D01*
X6338097Y5671600D01*
X6338428Y5669089D01*
X6339397Y5666749D01*
X6340939Y5664739D01*
X6342949Y5663197D01*
X6345289Y5662228D01*
X6347800Y5661897D01*
X6350311Y5662228D01*
X6352651Y5663197D01*
X6354661Y5664739D01*
X6356203Y5666749D01*
X6357172Y5669089D01*
X6357503Y5671600D01*
X6357172Y5674111D01*
X6356203Y5676451D01*
X6354661Y5678461D01*
X6352651Y5680003D01*
X6350311Y5680972D01*
X6347800Y5681303D01*
D02*
G37*
G36*
X6229770Y6097588D02*
Y6091420D01*
X6235938D01*
X6235846Y6092119D01*
X6235086Y6093953D01*
X6233878Y6095527D01*
X6232302Y6096736D01*
X6230468Y6097496D01*
X6229770Y6097588D01*
D02*
G37*
G36*
X6227230Y6097588D02*
X6226531Y6097496D01*
X6224697Y6096736D01*
X6223123Y6095527D01*
X6221914Y6093953D01*
X6221154Y6092119D01*
X6221062Y6091420D01*
X6227230D01*
Y6097588D01*
D02*
G37*
G36*
X6235938Y6088880D02*
X6229770D01*
Y6082712D01*
X6230468Y6082804D01*
X6232302Y6083564D01*
X6233878Y6084772D01*
X6235086Y6086348D01*
X6235846Y6088182D01*
X6235938Y6088880D01*
D02*
G37*
G36*
X6227230D02*
X6221062D01*
X6221154Y6088182D01*
X6221914Y6086348D01*
X6223123Y6084772D01*
X6224697Y6083564D01*
X6226531Y6082804D01*
X6227230Y6082712D01*
Y6088880D01*
D02*
G37*
%LPD*%
D25*
X7986000Y7058000D02*
X8044000D01*
X7878000Y7166000D02*
X7986000Y7058000D01*
X6796500Y5894500D02*
X6807500Y5905500D01*
X6796500Y5870000D02*
Y5894500D01*
Y5870000D02*
X6807500Y5859000D01*
X6850500D01*
X6886200Y5823300D01*
Y5804000D02*
Y5823300D01*
X7345000Y6236000D02*
X7354900Y6245900D01*
X7345000Y6232500D02*
Y6236000D01*
X7672150Y6232500D02*
Y6238850D01*
X7354900Y6245900D02*
X7375370D01*
X8151000Y6830000D02*
X8160000Y6839000D01*
X8005700Y6830000D02*
X8151000D01*
X7992800Y6842900D02*
X8005700Y6830000D01*
X7896000Y6976000D02*
X7901000Y6971000D01*
X7886000Y6950000D02*
X7907000Y6929000D01*
X8084000D01*
X8160000Y6853000D01*
Y6839000D02*
Y6853000D01*
X7979900Y6830000D02*
X7992800Y6842900D01*
X7685050Y6830000D02*
X7979900D01*
X7672150Y6842900D02*
X7685050Y6830000D01*
X7659250D02*
X7672150Y6842900D01*
X7357900Y6830000D02*
X7659250D01*
X7345000Y6842900D02*
X7357900Y6830000D01*
X7475000Y7107971D02*
Y7130000D01*
Y7107971D02*
X7623970Y6959000D01*
X7777971D01*
X7811970Y6925000D01*
X8063100D01*
X8145200Y6842900D01*
X8041700Y6921000D02*
X8119800Y6842900D01*
X7810314Y6921000D02*
X8041700D01*
X7776313Y6955000D02*
X7810314Y6921000D01*
X7622314Y6955000D02*
X7776313D01*
X7464445Y7112869D02*
X7622314Y6955000D01*
X7464445Y7112869D02*
Y7137000D01*
X7774657Y6951000D02*
X7808657Y6917000D01*
X7620657Y6951000D02*
X7774657D01*
X7453889Y7117768D02*
X7620657Y6951000D01*
X7453889Y7117768D02*
Y7144000D01*
X7443333Y7122667D02*
Y7151000D01*
X7444000Y7122000D02*
X7619000Y6947000D01*
X7808657Y6917000D02*
X8020300D01*
X8094400Y6842900D01*
X7619000Y6947000D02*
X7773000D01*
X7807000Y6913000D01*
X7998900D01*
X8069000Y6842900D01*
X7386000Y7152029D02*
X7612029Y6926000D01*
X7395333Y7148353D02*
X7613687Y6930000D01*
X7404667Y7144677D02*
X7615343Y6934000D01*
X7665250Y6926000D02*
X7748350Y6842900D01*
X7612029Y6926000D02*
X7665250D01*
X7686650Y6930000D02*
X7773750Y6842900D01*
X7613687Y6930000D02*
X7686650D01*
X7708050Y6934000D02*
X7799150Y6842900D01*
X7615343Y6934000D02*
X7708050D01*
X7729450Y6938000D02*
X7824550Y6842900D01*
X7617000Y6938000D02*
X7729450D01*
X7414000Y7141000D02*
X7617000Y6938000D01*
X7404667Y7144677D02*
Y7168333D01*
X7395333Y7148353D02*
Y7160667D01*
X7386000Y7152029D02*
Y7153000D01*
X7414000Y7141000D02*
Y7176000D01*
X7472000Y6842900D02*
Y6965000D01*
X7497400Y6842900D02*
Y6956600D01*
X7315000Y7139000D02*
X7497400Y6956600D01*
X7446600Y6842900D02*
Y6971400D01*
X7421200Y6842900D02*
Y6978800D01*
X6478000Y6077000D02*
X6495600D01*
X6471000Y6070000D02*
X6478000Y6077000D01*
X6471000Y5967598D02*
Y6070000D01*
X6467000Y5965941D02*
Y6073800D01*
Y5965941D02*
X6485000Y5947941D01*
X6446000Y5981284D02*
X6481000Y5946284D01*
X6446000Y5981284D02*
Y6078200D01*
X6432200Y6089800D02*
X6442000Y6080000D01*
Y5979628D02*
Y6080000D01*
Y5979628D02*
X6477000Y5944628D01*
X6471000Y5967598D02*
X6489000Y5949598D01*
Y5945700D02*
Y5949598D01*
Y5945700D02*
X6504900Y5929800D01*
X6485000Y5924300D02*
Y5947941D01*
Y5924300D02*
X6504900Y5904400D01*
X6481000Y5902900D02*
Y5946284D01*
Y5902900D02*
X6504900Y5879000D01*
X6477000Y5881500D02*
Y5944628D01*
Y5881500D02*
X6504900Y5853600D01*
X6461000Y5795900D02*
X6504900Y5752000D01*
X6461000Y5795900D02*
Y5938000D01*
X6465000Y5817300D02*
Y5939657D01*
Y5817300D02*
X6504900Y5777400D01*
X6469000Y5838700D02*
Y5941313D01*
Y5838700D02*
X6504900Y5802800D01*
X6343000Y6056000D02*
X6461000Y5938000D01*
X6369000Y6035657D02*
X6465000Y5939657D01*
X6395000Y6015314D02*
X6469000Y5941313D01*
X6420000Y5995970D02*
X6473000Y5942971D01*
Y5860100D02*
Y5942971D01*
Y5860100D02*
X6504900Y5828200D01*
X6406800Y6089800D02*
X6420000Y6076600D01*
Y5995970D02*
Y6076600D01*
X6381400Y6089800D02*
X6395000Y6076200D01*
Y6015314D02*
Y6076200D01*
X6356000Y6089800D02*
X6369000Y6076800D01*
Y6035657D02*
Y6076800D01*
X6330600Y6089800D02*
X6343000Y6077400D01*
Y6056000D02*
Y6077400D01*
X6347800Y5696600D02*
X6401800D01*
X6348000Y5933000D02*
X6402000D01*
X6348000Y5958000D02*
X6402000D01*
X6347800Y5721600D02*
X6401800D01*
X7375370Y6245900D02*
X7383000Y6238270D01*
Y6226000D02*
Y6238270D01*
Y6226000D02*
X7394000Y6215000D01*
X7722950Y6232500D02*
X7735450Y6245000D01*
X8031100D01*
X8043600Y6232500D01*
X8056100Y6245000D01*
X8355000D01*
X8367500Y6232500D01*
X8380000Y6245000D01*
X8678900D01*
X8691400Y6232500D01*
X7392800Y6510000D02*
X7404800Y6522000D01*
X7707950D01*
X7719950Y6510000D01*
X7710750Y6244700D02*
X7722950Y6232500D01*
X7395800D02*
X7408000Y6244700D01*
X7710750D01*
X7394000Y6215000D02*
X7654650D01*
X7672150Y6232500D01*
X8038000Y6994700D02*
X8050100Y6982600D01*
X8038000Y6994700D02*
Y7015000D01*
X8062000Y6996100D02*
X8075500Y6982600D01*
X8062000Y6996100D02*
Y7019000D01*
X8075500Y7008000D02*
Y7018500D01*
X8042000Y7052000D02*
X8075500Y7018500D01*
X8033000Y7048000D02*
X8062000Y7019000D01*
X8009000Y7044000D02*
X8038000Y7015000D01*
X7948000Y7044000D02*
X8009000D01*
X7960500Y7048000D02*
X8033000D01*
X8114000Y6994900D02*
X8126300Y6982600D01*
X8088000Y6995500D02*
X8100900Y6982600D01*
X8114000Y6994900D02*
Y7020000D01*
X8038000Y7096000D02*
X8114000Y7020000D01*
X8140000Y6994300D02*
X8151700Y6982600D01*
X8140000Y6994300D02*
Y7013000D01*
X8049000Y7104000D02*
X8140000Y7013000D01*
X7947000Y7140000D02*
X7991000Y7096000D01*
X8038000D01*
X7880500Y7181500D02*
X7920500D01*
X7998000Y7104000D01*
X8049000D01*
X7803000Y7156000D02*
X7886000Y7073000D01*
Y6950000D02*
Y7073000D01*
X7819500Y7156000D02*
X7896000Y7079500D01*
Y6976000D02*
Y7079500D01*
X7836000Y7156000D02*
X7948000Y7044000D01*
X7852500Y7156000D02*
X7960500Y7048000D01*
X7869000Y7156000D02*
X7973000Y7052000D01*
X8042000D01*
X7874000Y7188000D02*
X7880500Y7181500D01*
X8088000Y6995500D02*
Y7014000D01*
X8044000Y7058000D02*
X8088000Y7014000D01*
X7285000Y7115000D02*
X7421200Y6978800D01*
X7315000Y7139000D02*
Y7142000D01*
X7294000Y7124000D02*
X7446600Y6971400D01*
X7304000Y7133000D02*
X7472000Y6965000D01*
X6446000Y6078200D02*
X6457600Y6089800D01*
X6467000Y6073800D02*
X6483000Y6089800D01*
X6495600Y6077000D02*
X6508400Y6089800D01*
X6330250Y7013750D02*
X6342750Y7026250D01*
Y7042850D01*
X6330200Y7055400D02*
X6342750Y7042850D01*
D26*
X8709000Y6178000D02*
X8730000Y6199000D01*
Y6306000D01*
X8720000Y6170000D02*
X8755000Y6205000D01*
Y6303000D01*
X8401000Y6657000D02*
X8755000Y6303000D01*
X8224000Y6657000D02*
X8401000D01*
X8224000Y6607000D02*
X8429000D01*
X8730000Y6306000D01*
X6823200Y5331800D02*
X6977000D01*
X6627000Y5528000D02*
X6823200Y5331800D01*
X6810800Y5357200D02*
X6977000D01*
X6636000Y5532000D02*
X6810800Y5357200D01*
X6797400Y5382600D02*
X6977000D01*
X6647000Y5533000D02*
X6797400Y5382600D01*
X6627000Y5528000D02*
Y5990000D01*
X6647000Y6010000D01*
X6783600D01*
X6636000Y5532000D02*
Y5987000D01*
X6652000Y6003000D01*
X6802000D01*
X6647000Y5533000D02*
Y5986000D01*
X6657000Y5996000D01*
X6820400D01*
X6783600Y6010000D02*
X6838200Y6064600D01*
X6820400Y5996000D02*
X6889000Y6064600D01*
X6802000Y6003000D02*
X6863600Y6064600D01*
D27*
X8043600Y6735600D02*
Y6817500D01*
X8017000Y6709000D02*
X8043600Y6735600D01*
X8017000Y6697000D02*
Y6709000D01*
X7963000Y6643000D02*
X8017000Y6697000D01*
D29*
X7163000Y7174000D02*
X7282275D01*
X7163000Y7190000D02*
X7279003D01*
X7296689Y7172314D01*
X7321860D01*
X8001500Y7110500D02*
X8067500D01*
X8151700Y7026300D01*
Y7008000D02*
Y7026300D01*
X7282275Y7174000D02*
X7292962Y7163314D01*
X7325588D01*
X7874272Y7175000D02*
X7895000D01*
X7996000Y7074000D01*
X8045000D01*
X8100900Y7018100D01*
Y7008000D02*
Y7018100D01*
X7325588Y7163314D02*
X7348275Y7186000D01*
X7863272D01*
X7874272Y7175000D01*
X7321860Y7172314D02*
X7360547Y7211000D01*
X7901000D01*
X8001500Y7110500D01*
D34*
X7799200Y5420000D02*
Y5464200D01*
D40*
X6402000Y5933000D02*
D03*
X6348000D02*
D03*
X6402000Y5958000D02*
D03*
X6348000D02*
D03*
X6401800Y5696600D02*
D03*
X6347800D02*
D03*
X6401800Y5721600D02*
D03*
X6347800D02*
D03*
X6823500Y7169750D02*
D03*
X6666600D02*
D03*
X7395800Y6232500D02*
D03*
X7370400D02*
D03*
X7345000D02*
D03*
X7370400Y6257900D02*
D03*
X7392800Y6510000D02*
D03*
X7367400D02*
D03*
Y6535400D02*
D03*
X7719950Y6510000D02*
D03*
X7694550D02*
D03*
Y6535400D02*
D03*
X8043600Y6232500D02*
D03*
X8018200D02*
D03*
Y6257900D02*
D03*
X7722950Y6232500D02*
D03*
X7697550D02*
D03*
X7672150D02*
D03*
X7697550Y6257900D02*
D03*
X8691400Y6232500D02*
D03*
X8666000D02*
D03*
Y6257900D02*
D03*
X8367500Y6232500D02*
D03*
X8342100D02*
D03*
Y6257900D02*
D03*
X8151700Y6982600D02*
D03*
X8126300D02*
D03*
X8100900D02*
D03*
X8075500D02*
D03*
X8050100D02*
D03*
X8075500Y7008000D02*
D03*
X8100900D02*
D03*
X8151700D02*
D03*
X8043600Y6817500D02*
D03*
X8018200D02*
D03*
X7992800Y6842900D02*
D03*
X8069000D02*
D03*
X8094400D02*
D03*
X8119800D02*
D03*
X8145200D02*
D03*
X7697550Y6817500D02*
D03*
X7672150Y6842900D02*
D03*
X7748350D02*
D03*
X7773750D02*
D03*
X7799150D02*
D03*
X7824550D02*
D03*
X7370400Y6817500D02*
D03*
X7345000Y6842900D02*
D03*
X7421200D02*
D03*
X7446600D02*
D03*
X7472000D02*
D03*
X7497400D02*
D03*
X6977000Y5382600D02*
D03*
Y5357200D02*
D03*
Y5331800D02*
D03*
Y5281000D02*
D03*
D41*
X8224000Y6607000D02*
D03*
Y6657000D02*
D03*
X7963000Y6643000D02*
D03*
D47*
X7799200Y5420000D02*
D03*
D49*
X6332250Y7014000D02*
D03*
X7878000Y7166000D02*
D03*
X6915750Y7123250D02*
D03*
X6886000Y5589250D02*
D03*
X6690000Y5697750D02*
D03*
X6990000D02*
D03*
X6754000D02*
D03*
X7061500Y5589000D02*
D03*
X6807500Y5905500D02*
D03*
X7044500Y6745000D02*
D03*
X7068000D02*
D03*
Y6768000D02*
D03*
X7044500D02*
D03*
X7020000D02*
D03*
Y6745000D02*
D03*
X7901000Y6971000D02*
D03*
X7443333Y7151000D02*
D03*
X7414000Y7176000D02*
D03*
X7404667Y7168333D02*
D03*
X7395333Y7160667D02*
D03*
X7386000Y7153000D02*
D03*
X7314000Y7141000D02*
D03*
X7304000Y7132000D02*
D03*
X7294000Y7123000D02*
D03*
X7285000Y7114000D02*
D03*
X7163000Y7174000D02*
D03*
Y7190000D02*
D03*
X7836000Y7156000D02*
D03*
X7852500D02*
D03*
X7869000D02*
D03*
X7947000Y7140000D02*
D03*
X7819500Y7156000D02*
D03*
X7874000Y7188000D02*
D03*
X7923000Y6617000D02*
D03*
Y6634667D02*
D03*
Y6652333D02*
D03*
Y6670000D02*
D03*
X8709000Y6178000D02*
D03*
X8720000Y6170000D02*
D03*
D50*
X7370400Y6164600D02*
Y6232500D01*
X7697550Y6169550D02*
Y6232500D01*
X8018200Y6182800D02*
Y6232500D01*
X8342100Y6178100D02*
Y6232500D01*
X8666000Y6190000D02*
Y6232500D01*
X7694550Y6479450D02*
Y6510000D01*
X7367400Y6476600D02*
Y6510000D01*
X8666000Y6257900D02*
Y6304000D01*
X8342100Y6257900D02*
Y6305900D01*
X8018200Y6257900D02*
Y6310800D01*
X7697550Y6257900D02*
Y6291450D01*
X7370400Y6257900D02*
Y6297600D01*
X7694550Y6535400D02*
Y6600450D01*
X7367400Y6535400D02*
Y6588400D01*
X8018200Y6771800D02*
Y6817500D01*
X7697550Y6776450D02*
Y6817500D01*
X7370400Y6769600D02*
Y6817500D01*
D51*
X7024200Y6925250D02*
D03*
D52*
X6504900Y5752000D02*
D03*
Y5777400D02*
D03*
Y5802800D02*
D03*
Y5828200D02*
D03*
Y5853600D02*
D03*
Y5879000D02*
D03*
Y5904400D02*
D03*
Y5929800D02*
D03*
X6886200Y5804000D02*
D03*
X7038600Y5956400D02*
D03*
X7013200D02*
D03*
X6810000D02*
D03*
X6784600D02*
D03*
X6330200Y7055400D02*
D03*
X6254000Y7030000D02*
D03*
X6228500Y6090150D02*
D03*
X6330100D02*
D03*
X6355500D02*
D03*
X6380900D02*
D03*
X6406300D02*
D03*
X6431700D02*
D03*
X6457100D02*
D03*
X6482500D02*
D03*
X6507900D02*
D03*
X6888900Y6064750D02*
D03*
X6863500D02*
D03*
X6838100D02*
D03*
D53*
X6507000Y7171000D02*
D03*
D54*
X6393000Y6128000D02*
D03*
X6372750D02*
D03*
X6320000Y6984000D02*
D03*
X6299750D02*
D03*
X6320000Y6965000D02*
D03*
X6299750D02*
D03*
X6959750Y6966000D02*
D03*
X6950500Y6978750D02*
D03*
X6822750Y5589000D02*
D03*
X6922500Y5697750D02*
D03*
X7125250Y5589000D02*
D03*
X7475000Y7130000D02*
D03*
X7464445Y7137000D02*
D03*
X7453889Y7144000D02*
D03*
X7803000Y7156000D02*
D03*
X6938000Y6993000D02*
D03*
Y6979000D02*
D03*
X6273000Y5957000D02*
D03*
Y5830000D02*
D03*
Y5722000D02*
D03*
X6383000Y6120000D02*
D03*
X6466000Y5678000D02*
D03*
Y5657000D02*
D03*
X6446000Y5678000D02*
D03*
Y5657000D02*
D03*
X7901000Y6067000D02*
D03*
X7918000D02*
D03*
X7901000Y6082000D02*
D03*
X7918000D02*
D03*
M02*
